<svg width="41" height="40" viewBox="0 0 41 40" fill="none" xmlns="http://www.w3.org/2000/svg">
<path d="M31.1196 34.9999C29.6981 34.9999 28.3084 34.5784 27.1265 33.7886C25.9445 32.9989 25.0232 31.8763 24.4792 30.563C23.9352 29.2496 23.7929 27.8045 24.0702 26.4102C24.3476 25.016 25.0321 23.7353 26.0373 22.7301C27.0425 21.7249 28.3232 21.0404 29.7174 20.763C31.1117 20.4857 32.5568 20.6281 33.8702 21.1721C35.1835 21.7161 36.306 22.6373 37.0958 23.8193C37.8856 25.0013 38.3071 26.3909 38.3071 27.8124C38.3051 29.7181 37.5471 31.545 36.1997 32.8925C34.8522 34.24 33.0252 34.9979 31.1196 34.9999ZM31.1196 23.1249C30.1925 23.1249 29.2862 23.3999 28.5154 23.9149C27.7445 24.43 27.1437 25.1621 26.7889 26.0186C26.4342 26.8751 26.3413 27.8176 26.5222 28.7269C26.7031 29.6362 27.1495 30.4714 27.8051 31.127C28.4606 31.7826 29.2959 32.229 30.2051 32.4099C31.1144 32.5907 32.0569 32.4979 32.9135 32.1431C33.77 31.7883 34.5021 31.1875 35.0171 30.4167C35.5322 29.6458 35.8071 28.7395 35.8071 27.8124C35.8057 26.5697 35.3114 25.3782 34.4326 24.4995C33.5538 23.6207 32.3624 23.1264 31.1196 23.1249Z" fill="#617086"/>
<path d="M10.4946 34.9999C9.07305 34.9999 7.68342 34.5784 6.50144 33.7886C5.31947 32.9989 4.39823 31.8763 3.85422 30.563C3.31022 29.2496 3.16788 27.8045 3.44521 26.4102C3.72254 25.016 4.40709 23.7353 5.41228 22.7301C6.41746 21.7249 7.69815 21.0404 9.09239 20.763C10.4866 20.4857 11.9318 20.6281 13.2451 21.1721C14.5585 21.7161 15.681 22.6373 16.4708 23.8193C17.2606 25.0013 17.6821 26.3909 17.6821 27.8124C17.68 29.7181 16.9221 31.545 15.5746 32.8925C14.2272 34.24 12.4002 34.9979 10.4946 34.9999ZM10.4946 23.1249C9.5675 23.1249 8.66122 23.3999 7.89037 23.9149C7.11951 24.43 6.51871 25.1621 6.16392 26.0186C5.80913 26.8751 5.71631 27.8176 5.89717 28.7269C6.07804 29.6362 6.52448 30.4714 7.18004 31.127C7.8356 31.7826 8.67083 32.229 9.58012 32.4099C10.4894 32.5907 11.4319 32.4979 12.2884 32.1431C13.145 31.7883 13.8771 31.1875 14.3921 30.4167C14.9072 29.6458 15.1821 28.7395 15.1821 27.8124C15.1807 26.5697 14.6863 25.3782 13.8076 24.4995C12.9288 23.6207 11.7374 23.1264 10.4946 23.1249Z" fill="#617086"/>
<path d="M25.8076 9.99997C26.1368 10.0011 26.4631 9.93697 26.7674 9.81125C27.0718 9.68553 27.3482 9.50072 27.5806 9.26752C27.8131 9.03431 27.9971 8.75734 28.1218 8.45261C28.2466 8.14787 28.3097 7.82143 28.3076 7.49215C28.3112 7.16452 28.2495 6.83945 28.126 6.53594C28.0026 6.23244 27.8198 5.9566 27.5885 5.72455C27.3572 5.49251 27.0819 5.3089 26.7788 5.18449C26.4757 5.06007 26.1508 4.99734 25.8232 4.99996C25.4949 4.99893 25.1696 5.06258 24.8659 5.18727C24.5622 5.31196 24.286 5.49525 24.0531 5.72667C23.8203 5.95809 23.6352 6.23311 23.5087 6.53603C23.3821 6.83896 23.3164 7.16385 23.3154 7.49215C23.3143 7.82046 23.378 8.14575 23.5027 8.44946C23.6274 8.75316 23.8107 9.02934 24.0421 9.26221C24.2735 9.49508 24.5485 9.68009 24.8514 9.80668C25.1544 9.93326 25.4793 9.99894 25.8076 9.99997Z" fill="#617086"/>
<path d="M29.522 14.9999H26.1032C26.0472 14.9999 25.9921 14.9848 25.9439 14.9563C25.8956 14.9277 25.8559 14.8866 25.829 14.8374L23.3493 10.2929C23.1746 9.95516 22.9228 9.66331 22.6144 9.44098C22.3059 9.21865 21.9494 9.07207 21.5738 9.01311C21.1981 8.95416 20.8139 8.98448 20.4521 9.10163C20.0904 9.21877 19.7613 9.41945 19.4915 9.68741L14.0337 15.1874C13.5752 15.6554 13.315 16.2823 13.3072 16.9374C13.3072 18.2968 14.2915 18.7812 14.7525 19.0546C16.979 20.3374 18.547 21.2757 19.4072 21.7968C19.4529 21.8246 19.4907 21.8637 19.517 21.9104C19.5432 21.957 19.5571 22.0097 19.5572 22.0632V27.4632C19.5572 28.1359 20.0743 28.7132 20.747 28.7468C20.9159 28.7549 21.0847 28.7287 21.2431 28.6697C21.4016 28.6108 21.5464 28.5203 21.6689 28.4037C21.7914 28.2872 21.8889 28.147 21.9557 27.9916C22.0224 27.8363 22.0569 27.669 22.0572 27.4999V20.7812C22.0573 20.5827 22.0101 20.3871 21.9197 20.2105C21.8292 20.0339 21.698 19.8814 21.5368 19.7655L18.6462 17.6866C18.6099 17.6607 18.5796 17.6272 18.5574 17.5886C18.5351 17.5499 18.5213 17.507 18.517 17.4626C18.5127 17.4181 18.518 17.3733 18.5325 17.3311C18.5469 17.2889 18.5703 17.2503 18.6009 17.2179L21.8822 13.7187C21.9158 13.6827 21.9575 13.6551 22.0038 13.6383C22.0501 13.6215 22.0997 13.6158 22.1486 13.6219C22.1976 13.6279 22.2443 13.6454 22.2852 13.6729C22.3261 13.7005 22.3598 13.7373 22.3837 13.7804L24.0884 16.8569C24.1967 17.052 24.3553 17.2144 24.5476 17.3275C24.74 17.4406 24.9591 17.5001 25.1822 17.4999H29.5571C29.7265 17.5001 29.8941 17.4659 30.0498 17.3993C30.2055 17.3328 30.3461 17.2353 30.463 17.1128C30.5799 16.9903 30.6707 16.8453 30.7298 16.6866C30.789 16.5279 30.8153 16.3589 30.8071 16.1898C30.7743 15.5171 30.1946 14.9999 29.522 14.9999Z" fill="#617086"/>
</svg>
