<svg width="60" height="60" viewBox="0 0 60 60" fill="none" xmlns="http://www.w3.org/2000/svg">
<path d="M30 39.375C34.1421 39.375 37.5 36.0171 37.5 31.875C37.5 27.7329 34.1421 24.375 30 24.375C25.8579 24.375 22.5 27.7329 22.5 31.875C22.5 36.0171 25.8579 39.375 30 39.375Z" fill="#617086"/>
<path d="M50.625 16.875H43.7109C43.3594 16.875 42.9234 16.6477 42.5836 16.2891L39.5438 11.4914C39.4957 11.4153 39.442 11.3428 39.3832 11.2746C38.3332 10.05 36.9141 9.375 35.3906 9.375H24.6094C23.0859 9.375 21.6668 10.05 20.6168 11.2746C20.558 11.3428 20.5043 11.4153 20.4562 11.4914L17.4164 16.2961C17.1562 16.5797 16.7906 16.882 16.4062 16.882V15.9445C16.4062 15.4472 16.2087 14.9703 15.8571 14.6187C15.5054 14.2671 15.0285 14.0695 14.5312 14.0695H11.7188C11.2215 14.0695 10.7446 14.2671 10.3929 14.6187C10.0413 14.9703 9.84375 15.4472 9.84375 15.9445V16.882H9.375C7.88363 16.8836 6.45379 17.4767 5.39924 18.5313C4.34468 19.5858 3.75155 21.0157 3.75 22.507V45C3.75155 46.4914 4.34468 47.9212 5.39924 48.9758C6.45379 50.0303 7.88363 50.6234 9.375 50.625H50.625C52.1164 50.6234 53.5462 50.0303 54.6008 48.9758C55.6553 47.9212 56.2484 46.4914 56.25 45V22.5C56.2484 21.0086 55.6553 19.5788 54.6008 18.5242C53.5462 17.4697 52.1164 16.8766 50.625 16.875ZM30 43.125C27.775 43.125 25.5999 42.4652 23.7498 41.229C21.8998 39.9929 20.4578 38.2359 19.6064 36.1802C18.7549 34.1245 18.5321 31.8625 18.9662 29.6802C19.4003 27.4979 20.4717 25.4934 22.045 23.92C23.6184 22.3467 25.6229 21.2753 27.8052 20.8412C29.9875 20.4071 32.2495 20.6299 34.3052 21.4814C36.3609 22.3328 38.1179 23.7748 39.354 25.6248C40.5902 27.4749 41.25 29.65 41.25 31.875C41.2466 34.8576 40.0602 37.7171 37.9512 39.8262C35.8421 41.9352 32.9826 43.1216 30 43.125Z" fill="#617086"/>
</svg>
