<svg width="41" height="40" viewBox="0 0 41 40" fill="none" xmlns="http://www.w3.org/2000/svg">
<path d="M39.4212 21.5797C39.14 18.4227 38.6767 17.8078 38.5017 17.5766C38.0994 17.0422 37.4556 16.693 36.7744 16.3266C36.7358 16.3062 36.7026 16.2771 36.6772 16.2417C36.6518 16.2063 36.635 16.1655 36.6281 16.1224C36.6212 16.0794 36.6244 16.0353 36.6375 15.9938C36.6505 15.9522 36.673 15.9142 36.7033 15.8828C36.8294 15.7549 36.9264 15.6011 36.9875 15.4321C37.0486 15.2632 37.0724 15.083 37.0572 14.9039C37.0278 14.5864 36.8802 14.2916 36.6436 14.0778C36.407 13.8641 36.0987 13.7471 35.7798 13.75H34.5611C34.5088 13.7503 34.4567 13.7537 34.4048 13.7602C34.3693 13.7447 34.3324 13.7324 34.2947 13.7234C33.5728 12.1977 32.5845 10.1086 30.5361 9.08906C27.4978 7.57812 21.9009 7.5 20.8072 7.5C19.7134 7.5 14.1166 7.57812 11.0822 9.08672C9.03374 10.1062 8.04546 12.1953 7.32358 13.7211L7.31733 13.7336C7.28133 13.7387 7.24597 13.7476 7.21186 13.7602C7.16003 13.7537 7.10785 13.7503 7.05561 13.75H5.83452C5.51568 13.7471 5.20739 13.8641 4.97079 14.0778C4.73419 14.2916 4.58656 14.5864 4.55718 14.9039C4.5433 15.0825 4.56815 15.2621 4.63004 15.4302C4.69193 15.5983 4.78939 15.7511 4.91577 15.8781C4.946 15.9095 4.96853 15.9475 4.98157 15.9891C4.99461 16.0307 4.99781 16.0747 4.99092 16.1177C4.98402 16.1608 4.96722 16.2016 4.94184 16.237C4.91647 16.2725 4.8832 16.3015 4.84468 16.3219C4.16342 16.6906 3.51655 17.0398 3.11733 17.5719C2.94233 17.8062 2.47983 18.418 2.1978 21.575C2.04155 23.3516 2.01811 25.1906 2.14077 26.375C2.3978 28.8359 2.87983 30.3234 2.90014 30.3852C2.97411 30.6098 3.11027 30.8088 3.29281 30.9591C3.47535 31.1094 3.69678 31.2049 3.93139 31.2344V31.25C3.93139 31.5815 4.06309 31.8995 4.29751 32.1339C4.53193 32.3683 4.84987 32.5 5.18139 32.5H9.55639C9.88792 32.5 10.2059 32.3683 10.4403 32.1339C10.6747 31.8995 10.8064 31.5815 10.8064 31.25C11.4791 31.25 11.947 31.1297 12.4431 31.0016C13.1593 30.8086 13.8914 30.6802 14.6306 30.618C17.0142 30.3906 19.3845 30.3125 20.8072 30.3125C22.2009 30.3125 24.6759 30.3906 27.0634 30.618C27.8055 30.6803 28.5405 30.8092 29.2595 31.0031C29.7345 31.125 30.1853 31.2375 30.8095 31.2492C30.8095 31.5807 30.9412 31.8987 31.1756 32.1331C31.4101 32.3675 31.728 32.4992 32.0595 32.4992H36.4345C36.766 32.4992 37.084 32.3675 37.3184 32.1331C37.5528 31.8987 37.6845 31.5807 37.6845 31.2492V31.2398C37.9197 31.2109 38.1418 31.1157 38.3249 30.9653C38.5081 30.815 38.6447 30.6157 38.7189 30.3906C38.7392 30.3289 39.2212 28.8414 39.4783 26.3805C39.6009 25.1953 39.5791 23.3594 39.4212 21.5797ZM9.58296 14.7898C10.208 13.4617 10.9228 11.9586 12.1955 11.325C14.0345 10.4094 17.8462 9.99687 20.8072 9.99687C23.7681 9.99687 27.5798 10.4063 29.4189 11.325C30.6916 11.9586 31.4033 13.4625 32.0314 14.7898L32.1095 14.9594C32.1552 15.0559 32.1754 15.1625 32.1682 15.269C32.161 15.3756 32.1266 15.4785 32.0683 15.5679C32.01 15.6574 31.9298 15.7305 31.8352 15.7801C31.7407 15.8298 31.635 15.8544 31.5283 15.8516C28.9322 15.7812 23.4634 15.5562 20.8072 15.5562C18.1509 15.5562 12.6822 15.7867 10.0822 15.857C9.97543 15.8598 9.86976 15.8352 9.77522 15.7856C9.68069 15.7359 9.60045 15.6629 9.54216 15.5734C9.48388 15.4839 9.44948 15.381 9.44226 15.2745C9.43505 15.168 9.45524 15.0614 9.50093 14.9648C9.52827 14.907 9.55718 14.8484 9.58296 14.7898ZM10.515 21.0109C9.17109 21.1727 7.81859 21.2525 6.46499 21.25C5.63686 21.25 4.78296 21.0156 4.62436 20.2781C4.51577 19.782 4.52749 19.5031 4.58608 19.2227C4.6353 18.9844 4.71343 18.8109 5.10405 18.75C6.11968 18.5938 6.68764 18.7898 8.35014 19.2797C9.45249 19.6039 10.2478 20.0359 10.7009 20.3781C10.9283 20.5469 10.8072 20.9875 10.515 21.0109ZM27.8103 27.4172C26.7822 27.5344 24.7259 27.4914 20.8306 27.4914C16.9353 27.4914 14.8798 27.5344 13.8517 27.4172C12.7908 27.2992 11.4384 26.2961 12.3619 25.4023C12.9767 24.8133 14.4111 24.3727 16.3212 24.125C18.2314 23.8773 19.04 23.75 20.8228 23.75C22.6056 23.75 23.3322 23.8281 25.3244 24.1258C27.3166 24.4234 28.822 24.8695 29.2837 25.4031C30.1259 26.3594 28.8705 27.293 27.8103 27.4219V27.4172ZM36.99 20.2773C36.8337 21.018 35.9744 21.2492 35.1494 21.2492C33.7699 21.2495 32.3915 21.1697 31.0212 21.0102C30.7822 20.9875 30.6712 20.568 30.9134 20.3773C31.3595 20.0266 32.1634 19.6031 33.2642 19.2789C34.9267 18.7891 35.8853 18.593 36.7087 18.7563C36.9095 18.7961 37.0158 19.0117 37.0283 19.1469C37.0834 19.5232 37.0704 19.9064 36.99 20.2781V20.2773Z" fill="#617086"/>
</svg>
