<svg width="60" height="60" viewBox="0 0 60 60" fill="none" xmlns="http://www.w3.org/2000/svg">
<path d="M30 5.625C16.5598 5.625 5.625 16.5598 5.625 30C5.625 43.4402 16.5598 54.375 30 54.375C43.4402 54.375 54.375 43.4402 54.375 30C54.375 16.5598 43.4402 5.625 30 5.625ZM38.8254 36.1746C39.0068 36.347 39.1519 36.5539 39.2521 36.7833C39.3523 37.0126 39.4056 37.2597 39.4088 37.5099C39.412 37.7602 39.3651 38.0085 39.2708 38.2404C39.1765 38.4722 39.0367 38.6828 38.8598 38.8598C38.6828 39.0367 38.4722 39.1765 38.2404 39.2708C38.0085 39.3651 37.7602 39.412 37.5099 39.4088C37.2597 39.4056 37.0126 39.3523 36.7833 39.2521C36.5539 39.1519 36.347 39.0068 36.1746 38.8254L30 32.652L23.8254 38.8254C23.4709 39.1622 22.9989 39.3472 22.5099 39.3409C22.021 39.3346 21.5539 39.1376 21.2081 38.7919C20.8624 38.4461 20.6654 37.979 20.6591 37.4901C20.6528 37.0011 20.8378 36.5291 21.1746 36.1746L27.348 30L21.1746 23.8254C20.8378 23.4709 20.6528 22.9989 20.6591 22.5099C20.6654 22.021 20.8624 21.5539 21.2081 21.2081C21.5539 20.8624 22.021 20.6654 22.5099 20.6591C22.9989 20.6528 23.4709 20.8378 23.8254 21.1746L30 27.348L36.1746 21.1746C36.5291 20.8378 37.0011 20.6528 37.4901 20.6591C37.979 20.6654 38.4461 20.8624 38.7919 21.2081C39.1376 21.5539 39.3346 22.021 39.3409 22.5099C39.3472 22.9989 39.1622 23.4709 38.8254 23.8254L32.652 30L38.8254 36.1746Z" fill="#AA0000"/>
</svg>
