<svg width="19" height="19" viewBox="0 0 19 19" fill="none" xmlns="http://www.w3.org/2000/svg">
<path d="M16.625 9.5C16.625 5.56641 13.4336 2.375 9.5 2.375C5.56641 2.375 2.375 5.56641 2.375 9.5C2.375 13.4336 5.56641 16.625 9.5 16.625C13.4336 16.625 16.625 13.4336 16.625 9.5Z" stroke="#081120" stroke-miterlimit="10"/>
<path d="M12.9348 5.80128L12.9347 5.8014M12.9348 5.80128L12.9348 5.80117L12.9347 5.8014M12.9348 5.80128C12.9348 5.80132 12.9347 5.80136 12.9347 5.8014M12.9348 5.80128L12.9347 5.8014M8.84952 7.80497L8.84955 7.80496L12.7588 6.24127L11.1951 10.1505L11.1951 10.1505C11.1008 10.3863 10.9595 10.6005 10.78 10.7801C10.6004 10.9597 10.3862 11.101 10.1503 11.1953L10.1503 11.1953L6.24109 12.759L7.80478 8.84974L7.80479 8.8497C7.8991 8.61388 8.04033 8.39968 8.21991 8.2201C8.3995 8.04051 8.6137 7.89928 8.84952 7.80497ZM5.80109 12.935C5.80113 12.9349 5.80116 12.9349 5.8012 12.9349L5.80109 12.935ZM9.22863 8.13621L9.32618 8.6266L9.22863 8.13621C8.95888 8.18987 8.71109 8.32231 8.51661 8.51679C8.32213 8.71128 8.18968 8.95906 8.13603 9.22882C8.08237 9.49857 8.10991 9.77818 8.21516 10.0323C8.32042 10.2864 8.49866 10.5036 8.72734 10.6564C8.95603 10.8092 9.22489 10.8907 9.49993 10.8907C9.86875 10.8907 10.2225 10.7442 10.4833 10.4834C10.744 10.2226 10.8906 9.86893 10.8906 9.50012C10.8906 9.22507 10.809 8.95621 10.6562 8.72753C10.5034 8.49884 10.2862 8.3206 10.0321 8.21535C9.778 8.11009 9.49839 8.08255 9.22863 8.13621Z" fill="#081120" stroke="#081120"/>
</svg>
