<svg width="24" height="24" viewBox="0 0 24 24" fill="none" xmlns="http://www.w3.org/2000/svg">
<g id="icons / create-outline">
<path id="Vector" d="M18 10.5V19.125C18 19.3712 17.9515 19.615 17.8573 19.8425C17.763 20.07 17.6249 20.2767 17.4508 20.4508C17.2767 20.6249 17.07 20.763 16.8425 20.8573C16.615 20.9515 16.3712 21 16.125 21H4.875C4.37772 21 3.90081 20.8025 3.54917 20.4508C3.19754 20.0992 3 19.6223 3 19.125V7.875C3 7.37772 3.19754 6.90081 3.54917 6.54917C3.90081 6.19754 4.37772 6 4.875 6H12.7256" stroke="#081120" stroke-linecap="round" stroke-linejoin="round"/>
<path id="Vector_2" d="M21.5596 2.49629C21.4911 2.42103 21.4081 2.36044 21.3155 2.31817C21.2229 2.27591 21.1227 2.25286 21.021 2.2504C20.9193 2.24795 20.8181 2.26615 20.7236 2.3039C20.6291 2.34165 20.5432 2.39817 20.4712 2.47004L19.8913 3.04707C19.821 3.11739 19.7816 3.21273 19.7816 3.31215C19.7816 3.41156 19.821 3.50691 19.8913 3.57723L20.4229 4.10785C20.4577 4.14286 20.4991 4.17063 20.5448 4.18959C20.5904 4.20854 20.6393 4.2183 20.6887 4.2183C20.7381 4.2183 20.787 4.20854 20.8326 4.18959C20.8782 4.17063 20.9196 4.14286 20.9544 4.10785L21.5198 3.54535C21.8057 3.25988 21.8324 2.79488 21.5596 2.49629Z" fill="#081120"/>
<path id="Vector_3" d="M18.7188 4.2186L10.257 12.6655C10.2057 12.7166 10.1684 12.78 10.1487 12.8497L9.75727 14.0155C9.74789 14.0471 9.74723 14.0807 9.75535 14.1127C9.76346 14.1446 9.78006 14.1738 9.80339 14.1972C9.82672 14.2205 9.85592 14.2371 9.88789 14.2452C9.91987 14.2533 9.95345 14.2527 9.98508 14.2433L11.1499 13.8519C11.2196 13.8322 11.283 13.7949 11.3341 13.7436L19.781 5.28079C19.8592 5.20181 19.903 5.09518 19.903 4.98407C19.903 4.87296 19.8592 4.76634 19.781 4.68735L19.3146 4.2186C19.2355 4.13974 19.1284 4.09546 19.0167 4.09546C18.905 4.09546 18.7979 4.13974 18.7188 4.2186Z" fill="#081120"/>
</g>
</svg>
