<svg width="24" height="16" viewBox="0 0 24 16" fill="none" xmlns="http://www.w3.org/2000/svg">
<path d="M23.0091 7.18438C21.7687 5.26625 20.1595 3.63688 18.3558 2.47203C16.3603 1.18203 14.1572 0.5 11.985 0.5C9.99187 0.5 8.03203 1.06953 6.15984 2.19266C4.25062 3.33781 2.52093 5.01078 1.01859 7.16469C0.84899 7.40811 0.755584 7.69646 0.750243 7.99309C0.744901 8.28973 0.827865 8.58125 0.988591 8.83063C2.22656 10.768 3.81984 12.3997 5.59547 13.5486C7.59468 14.8438 9.74625 15.5 11.985 15.5C14.1745 15.5 16.3823 14.8236 18.3694 13.5444C20.1722 12.3833 21.7781 10.7478 23.0137 8.81375C23.1689 8.57017 23.251 8.28719 23.2502 7.99838C23.2493 7.70956 23.1656 7.42705 23.0091 7.18438ZM12.0009 12.5C11.1109 12.5 10.2409 12.2361 9.50087 11.7416C8.76085 11.2471 8.18407 10.5443 7.84348 9.72208C7.50288 8.89981 7.41377 7.99501 7.5874 7.12209C7.76103 6.24918 8.18962 5.44736 8.81895 4.81802C9.44829 4.18868 10.2501 3.7601 11.123 3.58647C11.9959 3.41283 12.9007 3.50195 13.723 3.84254C14.5453 4.18314 15.2481 4.75991 15.7425 5.49993C16.237 6.23995 16.5009 7.10998 16.5009 8C16.4996 9.19306 16.025 10.3369 15.1814 11.1805C14.3378 12.0241 13.194 12.4986 12.0009 12.5Z" fill="#081120"/>
</svg>
