<svg width="24" height="24" viewBox="0 0 24 24" fill="none" xmlns="http://www.w3.org/2000/svg">
<path d="M18.4678 22.0007L18.4668 22.0007C18.4144 22.0009 18.3634 21.9847 18.3207 21.9543C18.3205 21.9542 18.3203 21.954 18.3201 21.9538L12.2935 17.5847L12 17.3719L11.7065 17.5847L5.67791 21.9553L5.67783 21.9553C5.63489 21.9865 5.58317 22.0032 5.53013 22.003C5.4771 22.0028 5.4255 21.9857 5.38279 21.9543C5.34009 21.9228 5.30849 21.8786 5.29257 21.828C5.27665 21.7774 5.27723 21.7231 5.29423 21.6728L5.29434 21.6725L7.64559 14.7083L7.76658 14.3499L7.45464 14.136L1.36089 9.95711L1.36067 9.95696C1.31667 9.92683 1.28347 9.88341 1.2659 9.83305C1.24834 9.78269 1.24734 9.72804 1.26304 9.67708C1.27875 9.62611 1.31035 9.5815 1.35321 9.54977C1.39594 9.51815 1.44763 9.50097 1.50078 9.50072H9.0178H9.38106L9.49332 9.15523L11.7621 2.1732L11.7622 2.17289C11.7785 2.12265 11.8102 2.07885 11.853 2.04779C11.8957 2.01673 11.9472 2 12 2C12.0528 2 12.1043 2.01673 12.147 2.04779C12.1897 2.07885 12.2215 2.12265 12.2378 2.1729L12.2379 2.17316L14.5066 9.15753L14.6189 9.50306H14.9822L22.5 9.50306L22.5002 9.50306C22.5536 9.50303 22.6056 9.52011 22.6486 9.55177C22.6916 9.58344 22.7233 9.62804 22.7391 9.67905C22.755 9.73006 22.754 9.78478 22.7365 9.83521C22.7189 9.88564 22.6857 9.92913 22.6416 9.95931L22.6416 9.95933L16.5455 14.1359L16.2334 14.3498L16.3544 14.7083L18.7042 21.6706L18.7042 21.6707C18.7169 21.7083 18.7205 21.7483 18.7147 21.7876C18.7088 21.8268 18.6937 21.8641 18.6706 21.8963C18.6475 21.9285 18.6171 21.9548 18.5818 21.973C18.5466 21.9911 18.5075 22.0006 18.4678 22.0007Z" fill="#FAFAFA" stroke="#E8B600"/>
</svg>
