<svg width="41" height="40" viewBox="0 0 41 40" fill="none" xmlns="http://www.w3.org/2000/svg">
<path d="M20.4676 2.5C13.5397 2.5 7.91846 7.53984 7.91846 13.75C7.91846 23.75 20.4676 37.5 20.4676 37.5C20.4676 37.5 33.0168 23.75 33.0168 13.75C33.0168 7.53984 27.3956 2.5 20.4676 2.5ZM20.4676 20C19.4748 20 18.5043 19.7068 17.6789 19.1573C16.8534 18.6079 16.21 17.827 15.8301 16.9134C15.4501 15.9998 15.3507 14.9945 15.5444 14.0245C15.7381 13.0546 16.2162 12.1637 16.9182 11.4645C17.6202 10.7652 18.5146 10.289 19.4884 10.0961C20.4621 9.90315 21.4714 10.0022 22.3886 10.3806C23.3058 10.759 24.0898 11.3999 24.6414 12.2221C25.1929 13.0444 25.4873 14.0111 25.4873 15C25.4859 16.3256 24.9565 17.5966 24.0155 18.5339C23.0744 19.4713 21.7985 19.9986 20.4676 20Z" fill="#617086"/>
</svg>
