<svg width="133" height="94" viewBox="0 0 133 94" fill="none" xmlns="http://www.w3.org/2000/svg">
<path d="M39.3756 81.1549H36.2922C36.2591 80.821 36.2275 80.495 36.188 80.0709C34.621 81.3891 32.8709 81.6534 30.9754 81.2467C29.6715 80.983 28.5113 80.2451 27.7183 79.1752C25.8907 76.7603 26.0803 72.7186 28.0658 70.5949C29.8349 68.6959 33.5074 67.949 36.1722 70.1772C36.2069 69.8005 36.2369 69.4809 36.2733 69.1011H39.3724L39.3756 81.1549ZM33.0036 78.558C35.0175 78.558 36.3538 77.1813 36.3617 75.0765C36.3617 73.062 35.0112 71.671 33.0257 71.6536C31.0402 71.6362 29.6643 73.0114 29.6565 75.0291C29.647 77.08 31.0449 78.5501 33.0036 78.558Z" fill="#13294B"/>
<path d="M114.721 76.3489H105.326C105.435 77.5627 106.364 78.3444 107.853 78.547C109.144 78.721 110.298 78.4663 111.3 77.5737C111.458 77.4266 111.878 77.3965 112.09 77.4962C112.774 77.8238 113.418 78.2368 114.077 78.6166C112.813 80.9903 109.065 82.3165 105.547 80.8321C102.584 79.5867 101.194 76.197 102.295 72.8722C103.242 69.9889 106.937 68.1769 110.145 69.014C113.462 69.8844 115.381 72.8927 114.721 76.3489ZM111.297 74.0258C111.125 72.5319 109.862 71.6711 108.161 71.7343C106.857 71.7834 105.228 72.9007 105.435 74.0258H111.297Z" fill="#13294B"/>
<path d="M68.416 81.1549H65.2363C65.2221 80.8527 65.1984 80.5726 65.1968 80.2941C65.1968 78.1071 65.1968 75.92 65.1795 73.733C65.1716 72.8563 64.8557 72.1126 63.9979 71.7581C63.1402 71.4036 62.2446 71.4416 61.4612 72.0382C60.744 72.5842 60.5561 73.377 60.5482 74.2157C60.5292 76.2191 60.5355 78.221 60.5308 80.2292V81.1407H57.3053V69.0916H60.4818C60.5102 69.3954 60.5387 69.674 60.5766 70.0712C61.6823 69.2166 62.8528 68.783 64.2001 68.8653C66.6785 69.0236 68.1838 70.1566 68.3876 72.6158C68.6182 75.3883 68.4918 78.1925 68.5155 80.9824C68.5155 81.0236 68.4666 81.0711 68.416 81.1549Z" fill="#13294B"/>
<path d="M42.7685 69.1026H46.0303C46.0303 71.2912 46.0303 73.4434 46.0303 75.5909C46.0156 76.0373 46.0399 76.4842 46.103 76.9265C46.2846 77.9535 47.0002 78.5818 48.0411 78.6925C49.082 78.8033 50.1419 78.232 50.461 77.3063C50.6374 76.785 50.7318 76.2393 50.7406 75.689C50.7753 73.79 50.7564 71.891 50.758 69.992V69.0979H53.9771V81.1407H50.818C50.7817 80.8606 50.7453 80.5836 50.7011 80.245C50.5636 80.3043 50.4306 80.3736 50.3031 80.4523C48.5924 81.6961 46.7695 81.6629 44.9325 80.859C43.9658 80.438 43.3735 79.6167 43.0828 78.6118C42.9102 78.0861 42.8087 77.5394 42.7811 76.9866C42.7511 74.3929 42.7685 71.7865 42.7685 69.1026Z" fill="#13294B"/>
<path d="M80.2028 79.5408L81.7097 77.5421C83.1313 77.914 84.4028 78.2922 85.6949 78.5565C86.0914 78.6372 86.6 78.4853 86.9665 78.2795C87.1135 78.1838 87.2373 78.0565 87.3288 77.9067C87.4204 77.7569 87.4774 77.5886 87.4956 77.4139C87.4956 77.2066 87.0834 76.8822 86.8022 76.8094C85.6096 76.4929 84.3855 76.3062 83.1945 75.9881C81.0589 75.42 80.0669 73.7536 80.5203 71.5919C80.5976 71.1459 80.7865 70.7267 81.0694 70.3736C81.3522 70.0204 81.7198 69.7449 82.1377 69.5727C85.0552 68.3526 87.8242 68.6232 90.4257 70.5744C89.8571 71.3182 89.3201 72.024 88.862 72.6142C87.7073 72.2851 86.6664 71.9417 85.6033 71.709C85.2242 71.6252 84.7582 71.7391 84.3855 71.8958C84.1154 72.0081 83.7331 72.3705 83.7631 72.5636C83.8064 72.7293 83.8878 72.8826 84.0008 73.0112C84.1138 73.1398 84.2553 73.2401 84.4139 73.3042C85.3964 73.5875 86.4105 73.76 87.4151 73.9752C87.5952 74.0131 87.7736 74.0543 87.9521 74.1018C89.8966 74.6082 90.8222 75.727 90.8033 77.5421C90.7843 79.4522 89.7276 80.7704 87.8542 81.223C86.5347 81.5381 85.1612 81.5505 83.8363 81.2592C82.5114 80.968 81.2693 80.3805 80.2028 79.5408Z" fill="#13294B"/>
<path d="M20.1901 65.1116H23.572C23.618 65.2078 23.6499 65.3101 23.6667 65.4155C23.6573 68.946 23.7031 72.4766 23.6083 76.0039C23.5183 79.4031 20.724 81.6819 17.181 81.4683C14.5115 81.31 12.7945 80.1263 11.8215 77.9551L14.8638 76.6512C14.9823 76.8094 15.0976 76.9376 15.1971 77.0832C16.0343 78.3096 16.9741 78.6435 18.4763 78.2431C19.4904 77.9725 20.1269 77.1354 20.149 75.7586C20.2012 72.5462 20.1806 69.3321 20.1901 66.1181C20.1917 65.8079 20.1901 65.4978 20.1901 65.1116Z" fill="#13294B"/>
<path d="M78.1572 78.7337V81.4983C76.9868 81.4429 75.8542 81.4872 74.7533 81.3148C73.2922 81.0869 72.6398 80.1516 72.6161 78.4536C72.5893 76.4518 72.6161 74.4483 72.6066 72.4401C72.6066 72.2344 72.5877 72.0271 72.575 71.7407H71.2024V68.8922L72.5861 68.7751V65.6418H75.8606V68.821H78.2062V71.6995H75.9253C75.9253 73.7188 75.8953 75.6558 75.9427 77.5912C75.9585 78.2447 76.426 78.6166 77.0989 78.6641L78.1572 78.7337Z" fill="#13294B"/>
<path d="M94.2847 71.7343H92.863V68.8858L94.2673 68.7814V65.6164H97.5212V68.8162H99.8716V71.6932H97.5275V74.4262C97.5275 75.2443 97.5133 76.0609 97.5354 76.879C97.5717 78.3033 97.9208 78.6482 99.3251 78.6926C99.483 78.6926 99.641 78.7131 99.8305 78.7258C99.8479 78.9489 99.8748 79.1531 99.8779 79.3588C99.8779 80.0123 99.8779 80.6643 99.8779 81.4967C98.6711 81.4429 97.5417 81.4793 96.4408 81.3211C95.1297 81.1328 94.4142 80.3478 94.3589 79.0154C94.2704 76.9091 94.302 74.798 94.2847 72.6854C94.2831 72.4069 94.2847 72.122 94.2847 71.7343Z" fill="#13294B"/>
<path d="M124.797 71.9005C124.11 72.0698 123.415 72.1442 122.804 72.4085C121.4 73.0178 120.776 74.1809 120.768 75.6874C120.758 77.4788 120.768 79.2702 120.768 81.128H117.563V69.0884H120.722C120.741 69.5363 120.761 69.9873 120.788 70.6013C121.916 69.359 123.216 68.8606 124.791 68.8795L124.797 71.9005Z" fill="#13294B"/>
<path d="M67.1776 58.6566C58.6938 58.1819 51.5952 53.7952 47.6873 45.0013C44.4871 37.7994 45.1473 30.6244 49.349 23.9257C52.8493 18.3442 57.9703 15.0337 64.4165 13.7677C64.6219 13.7281 64.8304 13.6965 65.0389 13.6775C65.6581 13.6205 66.1446 13.5018 66.3452 12.7391C66.5774 11.8845 67.4509 11.4288 68.3986 11.4509C69.3732 11.4746 70.1062 11.9494 70.3889 12.853C70.5706 13.4306 70.8865 13.5794 71.3809 13.6442C74.973 14.1059 78.3934 15.4581 81.3322 17.5783C86.0867 20.9585 89.2158 25.5145 90.3515 31.2178C92.0559 39.7395 89.6929 47.087 83.2435 52.966C79.0181 56.8115 73.9366 58.5886 67.1776 58.6566ZM87.1624 36.2074C87.2761 35.6076 87.4404 35.1946 87.4104 34.7958C87.3634 33.9285 87.2375 33.0672 87.0344 32.2227C86.7454 31.1292 86.8544 29.849 85.7597 29.0751C85.7013 29.034 85.7597 28.8314 85.7597 28.7064C85.7455 28.4864 85.7882 28.2317 85.6839 28.056C84.7583 26.5605 83.8311 25.0651 82.8407 23.6139C82.6148 23.2848 82.1283 23.1392 81.7761 22.8876C81.6563 22.7945 81.5564 22.6782 81.4822 22.5458C81.3243 22.2767 81.2327 21.9254 81.0084 21.7324C80.3307 21.15 79.6515 20.5407 78.8839 20.1008C77.9045 19.5422 77.0816 18.531 75.7468 18.7968C75.6852 18.8095 75.5968 18.6718 75.5162 18.6069C75.2745 18.4107 75.0581 18.1132 74.7833 18.0388C73.3917 17.6622 71.9938 17.2919 70.58 17.0229C69.2627 16.7728 69.2532 16.8298 68.6609 18.004C68.5803 18.1623 68.4887 18.3205 68.4018 18.4788C67.77 18.1116 68.0101 16.977 67.0908 16.9722C66.361 16.9722 65.6297 17.1305 64.9015 17.227C64.5096 17.2699 64.1223 17.3466 63.7437 17.4565C62.867 17.7334 61.8529 17.7239 61.4043 18.5152C60.8878 18.6069 60.4566 18.5769 60.1549 18.7541C58.8931 19.4554 57.6678 20.2207 56.4839 21.0471C55.89 21.4792 55.0892 21.8542 55.1208 22.6755C54.7496 22.8844 54.4068 22.9809 54.2062 23.2072C53.6107 23.8735 52.982 24.5381 52.5334 25.3025C51.9269 26.3327 50.9807 27.2426 51.0913 28.602C51.0913 28.689 50.9333 28.7855 50.8591 28.8868C50.7011 29.1084 50.4847 29.3157 50.3978 29.5657C50.1246 30.3569 49.7771 31.1577 49.6823 31.9806C49.5243 33.2909 48.8657 34.6138 49.6096 35.9495C49.6491 36.0207 49.6002 36.1504 49.5765 36.2486C49.4912 36.6062 49.2858 36.9765 49.3301 37.3151C49.5054 38.6682 49.7581 40.0054 49.9824 41.3553C50.1499 42.3554 50.7438 43.2099 51.1197 44.1135C51.7816 45.7087 52.9331 47.1076 53.9313 48.5524C54.1841 48.918 54.6327 49.149 55.0197 49.4624C55.2566 49.7646 55.473 50.1761 55.8095 50.4372C56.792 51.2311 57.8171 51.9707 58.8801 52.6527C59.4614 53.0135 60.0459 53.6022 60.8767 53.2857C60.9368 53.2635 61.0536 53.3679 61.1342 53.4265C61.4706 53.6686 61.766 54.0342 62.142 54.1355C63.4056 54.482 64.6851 54.7795 65.9756 55.0058C66.718 55.1356 67.5109 55.4426 68.2375 54.8666C68.3023 54.8144 68.4776 54.8951 68.5993 54.9204C68.9404 54.9932 69.2927 55.1657 69.6197 55.1277C70.7688 55.0106 71.9102 54.8262 73.0379 54.5754C73.8276 54.3839 74.7896 54.4377 75.2698 53.523C75.3045 53.4566 75.5051 53.4771 75.6284 53.4613C75.8953 53.4281 76.2065 53.4787 76.4181 53.3553C77.647 52.6495 78.8965 51.9643 80.0512 51.1398C80.6451 50.7204 81.4807 50.4008 81.5091 49.4339C81.5091 49.3484 81.7381 49.2598 81.8692 49.1902C82.0777 49.081 82.3684 49.0446 82.5011 48.8737C83.373 47.72 84.2591 46.5711 85.0284 45.3542C85.3696 44.8225 85.8561 44.2465 85.5623 43.4805C85.537 43.4125 85.6823 43.2717 85.7566 43.172C85.9477 42.9203 86.2447 42.6972 86.3221 42.4155C86.6759 41.1242 87.0645 39.8297 87.2508 38.5099C87.363 37.725 87.8479 36.8103 87.1624 36.2074Z" fill="#13294B"/>
<path d="M71.057 12.0903C72.4518 11.2231 72.6824 10.5426 72.1438 8.97117C71.3666 6.7003 69.0368 5.45646 67.0497 6.24929C65.5507 6.84589 64.3644 8.54232 64.3107 10.0979C64.2791 10.8892 64.5271 11.4652 65.2505 11.8481C65.4085 11.9352 65.4654 12.2406 65.5665 12.4447C65.3453 12.4701 65.0926 12.5824 64.9093 12.508C63.7262 12.0222 63.2413 10.636 63.6662 9.05979C64.2096 7.05003 66.0198 5.42007 68.089 5.20485C69.111 5.09565 70.043 5.48653 70.8691 6.09895C72.1043 7.01363 72.9225 8.18942 73.1437 9.73868C73.3158 10.9572 72.8467 11.9542 71.88 12.4906C71.4377 12.7438 71.1518 12.6979 71.057 12.0903Z" fill="#13294B"/>
<path d="M57.3938 24.9369L57.2627 25.0714L65.4117 38.6286C65.7766 38.1903 66.0261 37.8089 66.3594 37.5209C66.7764 37.149 66.9565 36.7882 66.8744 36.1868C66.729 35.1361 67.5615 34.4224 68.6419 34.5379C68.8773 34.5632 69.1916 34.6012 69.3464 34.4777C69.8661 34.0616 70.3305 33.5741 70.8691 33.0662L57.3938 24.9369ZM79.3388 47.1677L79.4651 47.057C76.7799 42.5928 74.0867 38.127 71.3193 33.533C70.8359 34.0536 70.3826 34.4952 69.9924 34.9841C69.8505 35.1897 69.7887 35.4402 69.8187 35.6884C69.9766 36.9116 69.1758 37.7282 67.9643 37.5478C67.7523 37.5042 67.5318 37.5372 67.3419 37.6411C66.8206 38.032 66.3389 38.4751 65.7529 38.9752L79.3388 47.1677ZM69.7034 27.8344C69.686 27.9183 69.6686 28.0038 69.6528 28.0892L73.8987 30.2446L77.6328 26.4703C76.2475 27.1651 74.8859 27.8202 73.5528 28.5276C72.981 28.8298 72.5182 28.9042 71.8958 28.5671C71.2198 28.2063 70.4316 28.0687 69.6955 27.8344H69.7034ZM81.6323 35.9684V35.8229C80.0717 35.2991 78.5047 34.7958 76.9599 34.2404C76.6483 34.0928 76.394 33.8464 76.2365 33.5393C75.9111 32.9443 75.69 32.2923 75.3804 31.6878C75.2951 31.5185 75.055 31.4267 74.8844 31.2985C74.9128 31.5185 74.8844 31.7733 74.9807 31.9521C75.581 33.044 76.0438 34.1676 76.1164 35.4336C76.1259 35.6235 76.4687 35.9447 76.6645 35.9495C78.3168 35.9859 79.9706 35.9684 81.6244 35.9684H81.6323ZM55.1903 36.1789L55.1397 36.2834C56.5961 36.766 58.0461 37.2661 59.512 37.7203C59.7604 37.7844 59.9875 37.9132 60.1703 38.0936C60.3531 38.2739 60.4851 38.4994 60.5529 38.7473C60.8104 39.4927 61.2147 40.1874 61.5575 40.9027L61.8529 40.7935C61.3458 39.2854 60.8372 37.7757 60.2986 36.1789H55.1903ZM59.2971 45.4966C60.4376 44.9222 61.755 44.2987 63.0297 43.5976C63.6868 43.2368 64.2286 43.1799 64.9252 43.5549C65.5412 43.8888 66.2741 44.0059 66.9549 44.218L67.0213 43.998L62.867 41.8664L59.2971 45.4966ZM68.2375 28.1684V22.6597C67.74 23.845 67.3388 25.0524 66.9265 26.2567C66.6106 27.1682 66.5758 28.2886 65.1431 28.363L65.3106 28.6795L68.2375 28.1684ZM68.4144 49.1664L68.6056 49.2092C68.9215 48.2502 69.1853 47.2706 69.5675 46.3417C69.9861 45.3257 69.8582 43.9395 71.621 43.6356C71.2371 43.4948 71.1392 43.422 71.0555 43.4346C70.2847 43.5533 69.5122 43.6609 68.754 43.8366C68.6087 43.8698 68.4381 44.1848 68.4381 44.3731C68.4081 45.973 68.4192 47.5713 68.4192 49.168L68.4144 49.1664ZM75.6931 39.0717L75.9253 39.1129C76.4624 38.1792 76.5334 37.5683 76.0454 37.2534C75.9269 37.8896 75.8195 38.4814 75.6978 39.0733L75.6931 39.0717ZM60.8783 33.0424L60.5892 33.0108C60.4839 33.5583 60.3786 34.1059 60.2733 34.6534L60.605 34.7183C60.6903 34.1581 61.1816 33.677 60.8783 33.0424Z" fill="#13294B"/>
<path d="M57.3938 24.9369L70.8644 33.0598C70.3257 33.5678 69.8613 34.0552 69.3417 34.4714C69.1837 34.5948 68.8678 34.5569 68.6372 34.5315C67.5567 34.416 66.7243 35.1297 66.8696 36.1805C66.9518 36.7818 66.7717 37.1426 66.3547 37.5145C66.0261 37.8089 65.7766 38.1903 65.4069 38.6223L57.2579 25.0651L57.3938 24.9369Z" fill="#13294B"/>
<path d="M79.3388 47.1677L65.7545 38.9752C66.3405 38.4751 66.8222 38.0257 67.3435 37.6411C67.5334 37.5372 67.7539 37.5042 67.9659 37.5478C69.1774 37.7282 69.9845 36.9148 69.8203 35.6883C69.7903 35.4402 69.8521 35.1897 69.994 34.9841C70.3842 34.4951 70.8375 34.0536 71.3209 33.533C74.0883 38.1222 76.7767 42.5927 79.4667 47.057L79.3388 47.1677Z" fill="#13294B"/>
<path d="M69.6955 27.8344C70.4316 28.0687 71.2198 28.2063 71.8879 28.5671C72.5103 28.9042 72.9731 28.8298 73.5449 28.5276C74.8781 27.8202 76.2397 27.1651 77.625 26.4703L73.8908 30.2446L69.645 28.0892C69.6592 28.0101 69.6781 27.9183 69.6955 27.8344Z" fill="#13294B"/>
<path d="M81.6244 35.9684C79.9706 35.9684 78.3168 35.9859 76.663 35.9447C76.4671 35.9447 76.1244 35.6187 76.1149 35.4288C76.0422 34.1628 75.5794 33.0361 74.9792 31.9473C74.8797 31.7669 74.9112 31.5137 74.8828 31.2938C75.0534 31.4219 75.2935 31.5137 75.3788 31.6831C75.6947 32.2876 75.9095 32.9395 76.2349 33.5346C76.3925 33.8417 76.6468 34.0881 76.9584 34.2356C78.5032 34.799 80.0701 35.3022 81.6307 35.8181L81.6244 35.9684Z" fill="#13294B"/>
<path d="M55.1823 36.1409H60.2907C60.8293 37.7377 61.3379 39.2474 61.845 40.7555L61.5496 40.8662C61.2068 40.1494 60.8025 39.4547 60.545 38.7093C60.4774 38.4615 60.3454 38.2361 60.1626 38.056C59.9797 37.8758 59.7525 37.7474 59.5041 37.6839C58.0493 37.2313 56.6087 36.7344 55.1634 36.2596L55.1823 36.1409Z" fill="#13294B"/>
<path d="M59.2972 45.4966L62.867 41.8664L67.015 43.9933L66.9486 44.2132C66.2678 44.0012 65.5349 43.8841 64.9189 43.5502C64.2286 43.1751 63.6868 43.2337 63.0234 43.5929C61.7613 44.2987 60.4376 44.9222 59.2972 45.4966Z" fill="#13294B"/>
<path d="M68.2992 28.1684L65.3722 28.6811L65.2048 28.3646C66.6374 28.2902 66.6769 27.1698 66.9881 26.2583C67.4004 25.054 67.8016 23.8466 68.2992 22.6613V28.1684Z" fill="#13294B"/>
<path d="M68.4192 49.168C68.4192 47.5713 68.4081 45.973 68.4334 44.3746C68.4334 44.1863 68.6071 43.8714 68.7493 43.8382C69.5075 43.6625 70.2799 43.5549 71.0507 43.4362C71.1344 43.4236 71.2324 43.4964 71.6162 43.6372C69.8597 43.941 69.9877 45.3273 69.5628 46.3433C69.1805 47.2722 68.9167 48.2517 68.6008 49.2107L68.4192 49.168Z" fill="#13294B"/>
<path d="M75.6979 39.0733C75.8116 38.4814 75.9269 37.8896 76.0501 37.255C76.5382 37.5715 76.4671 38.1808 75.9301 39.1144L75.6979 39.0733Z" fill="#13294B"/>
<path d="M60.8783 33.0424C61.1816 33.6754 60.6904 34.1581 60.6003 34.7183L60.2686 34.6534C60.3739 34.1059 60.4792 33.5583 60.5845 33.0108L60.8783 33.0424Z" fill="#13294B"/>
</svg>
