<svg width="133" height="94" viewBox="0 0 133 94" fill="none" xmlns="http://www.w3.org/2000/svg">
<path d="M39.3756 81.1549H36.2922C36.2591 80.821 36.2275 80.495 36.188 80.0709C34.621 81.3891 32.8709 81.6534 30.9754 81.2467C29.6715 80.983 28.5113 80.2451 27.7183 79.1752C25.8907 76.7603 26.0803 72.7186 28.0658 70.5949C29.8349 68.6959 33.5074 67.949 36.1722 70.1772C36.2069 69.8005 36.2369 69.4809 36.2733 69.1011H39.3724L39.3756 81.1549ZM33.0036 78.558C35.0175 78.558 36.3538 77.1813 36.3617 75.0765C36.3617 73.062 35.0112 71.671 33.0257 71.6536C31.0402 71.6362 29.6643 73.0114 29.6565 75.0291C29.647 77.08 31.0449 78.5501 33.0036 78.558Z" fill="white"/>
<path d="M114.721 76.3489H105.326C105.435 77.5627 106.364 78.3444 107.853 78.547C109.144 78.721 110.298 78.4663 111.3 77.5737C111.458 77.4266 111.878 77.3965 112.09 77.4962C112.774 77.8238 113.418 78.2368 114.077 78.6166C112.813 80.9903 109.065 82.3165 105.547 80.8321C102.584 79.5867 101.194 76.197 102.295 72.8722C103.242 69.9889 106.937 68.1769 110.145 69.014C113.462 69.8844 115.381 72.8927 114.721 76.3489ZM111.297 74.0258C111.125 72.5319 109.862 71.6711 108.161 71.7343C106.857 71.7834 105.228 72.9007 105.435 74.0258H111.297Z" fill="white"/>
<path d="M68.416 81.1549H65.2363C65.2221 80.8527 65.1984 80.5726 65.1968 80.2941C65.1968 78.1071 65.1968 75.92 65.1795 73.733C65.1716 72.8563 64.8557 72.1126 63.9979 71.7581C63.1402 71.4036 62.2446 71.4416 61.4612 72.0382C60.744 72.5842 60.5561 73.377 60.5482 74.2157C60.5292 76.2191 60.5355 78.221 60.5308 80.2292V81.1407H57.3053V69.0916H60.4818C60.5102 69.3954 60.5387 69.674 60.5766 70.0712C61.6823 69.2166 62.8528 68.783 64.2001 68.8653C66.6785 69.0236 68.1838 70.1566 68.3876 72.6158C68.6182 75.3883 68.4918 78.1925 68.5155 80.9824C68.5155 81.0236 68.4666 81.0711 68.416 81.1549Z" fill="white"/>
<path d="M42.7685 69.1026H46.0303C46.0303 71.2912 46.0303 73.4434 46.0303 75.5909C46.0156 76.0373 46.0399 76.4842 46.103 76.9265C46.2846 77.9535 47.0002 78.5818 48.0411 78.6925C49.082 78.8033 50.1419 78.232 50.461 77.3063C50.6374 76.785 50.7318 76.2393 50.7406 75.689C50.7753 73.79 50.7564 71.891 50.758 69.992V69.0979H53.9771V81.1407H50.818C50.7817 80.8606 50.7453 80.5836 50.7011 80.245C50.5636 80.3043 50.4306 80.3736 50.3031 80.4523C48.5924 81.6961 46.7695 81.6629 44.9325 80.859C43.9658 80.438 43.3735 79.6167 43.0828 78.6118C42.9102 78.0861 42.8087 77.5394 42.7811 76.9866C42.7511 74.3929 42.7685 71.7865 42.7685 69.1026Z" fill="white"/>
<path d="M80.2028 79.5408L81.7097 77.5421C83.1313 77.914 84.4028 78.2922 85.6949 78.5565C86.0914 78.6372 86.6 78.4853 86.9665 78.2795C87.1135 78.1838 87.2373 78.0565 87.3288 77.9067C87.4204 77.7569 87.4774 77.5886 87.4956 77.4139C87.4956 77.2066 87.0834 76.8822 86.8022 76.8094C85.6096 76.4929 84.3855 76.3062 83.1945 75.9881C81.0589 75.42 80.0669 73.7536 80.5203 71.5919C80.5976 71.1459 80.7865 70.7267 81.0694 70.3736C81.3522 70.0204 81.7198 69.7449 82.1377 69.5727C85.0552 68.3526 87.8242 68.6232 90.4257 70.5744C89.8571 71.3182 89.3201 72.024 88.862 72.6142C87.7073 72.2851 86.6664 71.9417 85.6033 71.709C85.2242 71.6252 84.7582 71.7391 84.3855 71.8958C84.1154 72.0081 83.7331 72.3705 83.7631 72.5636C83.8064 72.7293 83.8878 72.8826 84.0008 73.0112C84.1138 73.1398 84.2553 73.2401 84.4139 73.3042C85.3964 73.5875 86.4105 73.76 87.4151 73.9752C87.5952 74.0131 87.7736 74.0543 87.9521 74.1018C89.8966 74.6082 90.8222 75.727 90.8033 77.5421C90.7843 79.4522 89.7276 80.7704 87.8542 81.223C86.5347 81.5381 85.1612 81.5505 83.8363 81.2592C82.5114 80.968 81.2693 80.3805 80.2028 79.5408Z" fill="white"/>
<path d="M20.1901 65.1116H23.572C23.618 65.2078 23.6499 65.3101 23.6667 65.4155C23.6573 68.946 23.7031 72.4766 23.6083 76.0039C23.5183 79.4031 20.724 81.6819 17.181 81.4683C14.5115 81.31 12.7945 80.1263 11.8215 77.9551L14.8638 76.6512C14.9823 76.8094 15.0976 76.9376 15.1971 77.0832C16.0343 78.3096 16.9741 78.6435 18.4763 78.2431C19.4904 77.9725 20.1269 77.1354 20.149 75.7586C20.2012 72.5462 20.1806 69.3321 20.1901 66.1181C20.1917 65.8079 20.1901 65.4978 20.1901 65.1116Z" fill="white"/>
<path d="M78.1572 78.7337V81.4983C76.9868 81.4429 75.8542 81.4872 74.7533 81.3148C73.2922 81.0869 72.6398 80.1516 72.6161 78.4536C72.5893 76.4518 72.6161 74.4483 72.6066 72.4401C72.6066 72.2344 72.5877 72.0271 72.575 71.7407H71.2024V68.8922L72.5861 68.7751V65.6418H75.8606V68.821H78.2062V71.6995H75.9253C75.9253 73.7188 75.8953 75.6558 75.9427 77.5912C75.9585 78.2447 76.426 78.6166 77.0989 78.6641L78.1572 78.7337Z" fill="white"/>
<path d="M94.2847 71.7343H92.863V68.8858L94.2673 68.7814V65.6164H97.5212V68.8162H99.8716V71.6932H97.5275V74.4262C97.5275 75.2443 97.5133 76.0609 97.5354 76.879C97.5717 78.3033 97.9208 78.6482 99.3251 78.6926C99.483 78.6926 99.641 78.7131 99.8305 78.7258C99.8479 78.9489 99.8748 79.1531 99.8779 79.3588C99.8779 80.0123 99.8779 80.6643 99.8779 81.4967C98.6711 81.4429 97.5417 81.4793 96.4408 81.3211C95.1297 81.1328 94.4142 80.3478 94.3589 79.0154C94.2704 76.9091 94.302 74.798 94.2847 72.6854C94.2831 72.4069 94.2847 72.122 94.2847 71.7343Z" fill="white"/>
<path d="M124.797 71.9005C124.11 72.0698 123.415 72.1442 122.804 72.4085C121.4 73.0178 120.776 74.1809 120.768 75.6874C120.758 77.4788 120.768 79.2702 120.768 81.128H117.563V69.0884H120.722C120.741 69.5363 120.761 69.9873 120.788 70.6013C121.916 69.359 123.216 68.8606 124.791 68.8795L124.797 71.9005Z" fill="white"/>
<path d="M67.1776 58.6566C58.6938 58.1819 51.5952 53.7952 47.6873 45.0013C44.4871 37.7994 45.1473 30.6244 49.349 23.9257C52.8493 18.3442 57.9703 15.0337 64.4165 13.7677C64.6219 13.7281 64.8304 13.6965 65.0389 13.6775C65.6581 13.6205 66.1446 13.5018 66.3452 12.7391C66.5774 11.8845 67.4509 11.4288 68.3986 11.4509C69.3732 11.4746 70.1062 11.9494 70.3889 12.853C70.5706 13.4306 70.8865 13.5794 71.3809 13.6442C74.973 14.1059 78.3934 15.4581 81.3322 17.5783C86.0867 20.9585 89.2158 25.5145 90.3515 31.2178C92.0559 39.7395 89.6929 47.087 83.2435 52.966C79.0181 56.8115 73.9366 58.5886 67.1776 58.6566ZM87.1624 36.2074C87.2761 35.6076 87.4404 35.1946 87.4104 34.7958C87.3634 33.9285 87.2375 33.0672 87.0344 32.2227C86.7454 31.1292 86.8544 29.849 85.7597 29.0751C85.7013 29.034 85.7597 28.8314 85.7597 28.7064C85.7455 28.4864 85.7882 28.2317 85.6839 28.056C84.7583 26.5605 83.8311 25.0651 82.8407 23.6139C82.6148 23.2848 82.1283 23.1392 81.7761 22.8876C81.6563 22.7945 81.5564 22.6782 81.4822 22.5458C81.3243 22.2767 81.2327 21.9254 81.0084 21.7324C80.3307 21.15 79.6515 20.5407 78.8839 20.1008C77.9045 19.5422 77.0816 18.531 75.7468 18.7968C75.6852 18.8095 75.5968 18.6718 75.5162 18.6069C75.2745 18.4107 75.0581 18.1132 74.7833 18.0388C73.3917 17.6622 71.9938 17.2919 70.58 17.0229C69.2627 16.7728 69.2532 16.8298 68.6609 18.004C68.5803 18.1623 68.4887 18.3205 68.4018 18.4788C67.77 18.1116 68.0101 16.977 67.0908 16.9722C66.361 16.9722 65.6297 17.1305 64.9015 17.227C64.5096 17.2699 64.1223 17.3466 63.7437 17.4565C62.867 17.7334 61.8529 17.7239 61.4043 18.5152C60.8878 18.6069 60.4566 18.5769 60.1549 18.7541C58.8931 19.4554 57.6678 20.2207 56.4839 21.0471C55.89 21.4792 55.0892 21.8542 55.1208 22.6755C54.7496 22.8844 54.4068 22.9809 54.2062 23.2072C53.6107 23.8735 52.982 24.5381 52.5334 25.3025C51.9269 26.3327 50.9807 27.2426 51.0913 28.602C51.0913 28.689 50.9333 28.7855 50.8591 28.8868C50.7011 29.1084 50.4847 29.3157 50.3978 29.5657C50.1246 30.3569 49.7771 31.1577 49.6823 31.9806C49.5243 33.2909 48.8657 34.6138 49.6096 35.9495C49.6491 36.0207 49.6002 36.1504 49.5765 36.2486C49.4912 36.6062 49.2858 36.9765 49.3301 37.3151C49.5054 38.6682 49.7581 40.0054 49.9824 41.3553C50.1499 42.3554 50.7438 43.2099 51.1197 44.1135C51.7816 45.7087 52.9331 47.1076 53.9313 48.5524C54.1841 48.918 54.6327 49.149 55.0197 49.4624C55.2566 49.7646 55.473 50.1761 55.8095 50.4372C56.792 51.2311 57.8171 51.9707 58.8801 52.6527C59.4614 53.0135 60.0459 53.6022 60.8767 53.2857C60.9368 53.2635 61.0536 53.3679 61.1342 53.4265C61.4706 53.6686 61.766 54.0342 62.142 54.1355C63.4056 54.482 64.6851 54.7795 65.9756 55.0058C66.718 55.1356 67.5109 55.4426 68.2375 54.8666C68.3023 54.8144 68.4776 54.8951 68.5993 54.9204C68.9404 54.9932 69.2927 55.1657 69.6197 55.1277C70.7688 55.0106 71.9102 54.8262 73.0379 54.5754C73.8276 54.3839 74.7896 54.4377 75.2698 53.523C75.3045 53.4566 75.5051 53.4771 75.6284 53.4613C75.8953 53.4281 76.2065 53.4787 76.4181 53.3553C77.647 52.6495 78.8965 51.9643 80.0512 51.1398C80.6451 50.7204 81.4807 50.4008 81.5091 49.4339C81.5091 49.3484 81.7381 49.2598 81.8692 49.1902C82.0777 49.081 82.3684 49.0446 82.5011 48.8737C83.373 47.72 84.2591 46.5711 85.0284 45.3542C85.3696 44.8225 85.8561 44.2465 85.5623 43.4805C85.537 43.4125 85.6823 43.2717 85.7566 43.172C85.9477 42.9203 86.2447 42.6972 86.3221 42.4155C86.6759 41.1242 87.0645 39.8297 87.2508 38.5099C87.363 37.725 87.8479 36.8103 87.1624 36.2074Z" fill="white"/>
<path d="M71.057 12.0903C72.4518 11.2231 72.6824 10.5426 72.1438 8.97117C71.3666 6.7003 69.0368 5.45646 67.0497 6.24929C65.5507 6.84589 64.3644 8.54232 64.3107 10.0979C64.2791 10.8892 64.5271 11.4652 65.2505 11.8481C65.4085 11.9352 65.4654 12.2406 65.5665 12.4447C65.3453 12.4701 65.0926 12.5824 64.9093 12.508C63.7262 12.0222 63.2413 10.636 63.6662 9.05979C64.2096 7.05003 66.0198 5.42007 68.089 5.20485C69.111 5.09565 70.043 5.48653 70.8691 6.09895C72.1043 7.01363 72.9225 8.18942 73.1437 9.73868C73.3158 10.9572 72.8467 11.9542 71.88 12.4906C71.4377 12.7438 71.1518 12.6979 71.057 12.0903Z" fill="white"/>
<path d="M57.3938 24.9369L57.2627 25.0714L65.4117 38.6286C65.7766 38.1903 66.0261 37.8089 66.3594 37.5209C66.7764 37.149 66.9565 36.7882 66.8744 36.1868C66.729 35.1361 67.5615 34.4224 68.6419 34.5379C68.8773 34.5632 69.1916 34.6012 69.3464 34.4777C69.8661 34.0616 70.3305 33.5741 70.8691 33.0662L57.3938 24.9369ZM79.3388 47.1677L79.4651 47.057C76.7799 42.5928 74.0867 38.127 71.3193 33.533C70.8359 34.0536 70.3826 34.4952 69.9924 34.9841C69.8505 35.1897 69.7887 35.4402 69.8187 35.6884C69.9766 36.9116 69.1758 37.7282 67.9643 37.5478C67.7523 37.5042 67.5318 37.5372 67.3419 37.6411C66.8206 38.032 66.3389 38.4751 65.7529 38.9752L79.3388 47.1677ZM69.7034 27.8344C69.686 27.9183 69.6686 28.0038 69.6528 28.0892L73.8987 30.2446L77.6328 26.4703C76.2475 27.1651 74.8859 27.8202 73.5528 28.5276C72.981 28.8298 72.5182 28.9042 71.8958 28.5671C71.2198 28.2063 70.4316 28.0687 69.6955 27.8344H69.7034ZM81.6323 35.9684V35.8229C80.0717 35.2991 78.5047 34.7958 76.9599 34.2404C76.6483 34.0928 76.394 33.8464 76.2365 33.5393C75.9111 32.9443 75.69 32.2923 75.3804 31.6878C75.2951 31.5185 75.055 31.4267 74.8844 31.2985C74.9128 31.5185 74.8844 31.7733 74.9807 31.9521C75.581 33.044 76.0438 34.1676 76.1164 35.4336C76.1259 35.6235 76.4687 35.9447 76.6645 35.9495C78.3168 35.9859 79.9706 35.9684 81.6244 35.9684H81.6323ZM55.1903 36.1789L55.1397 36.2834C56.5961 36.766 58.0461 37.2661 59.512 37.7203C59.7604 37.7844 59.9875 37.9132 60.1703 38.0936C60.3531 38.2739 60.4851 38.4994 60.5529 38.7473C60.8104 39.4927 61.2147 40.1874 61.5575 40.9027L61.8529 40.7935C61.3458 39.2854 60.8372 37.7757 60.2986 36.1789H55.1903ZM59.2971 45.4966C60.4376 44.9222 61.755 44.2987 63.0297 43.5976C63.6868 43.2368 64.2286 43.1799 64.9252 43.5549C65.5412 43.8888 66.2741 44.0059 66.9549 44.218L67.0213 43.998L62.867 41.8664L59.2971 45.4966ZM68.2375 28.1684V22.6597C67.74 23.845 67.3388 25.0524 66.9265 26.2567C66.6106 27.1682 66.5758 28.2886 65.1431 28.363L65.3106 28.6795L68.2375 28.1684ZM68.4144 49.1664L68.6056 49.2092C68.9215 48.2502 69.1853 47.2706 69.5675 46.3417C69.9861 45.3257 69.8582 43.9395 71.621 43.6356C71.2371 43.4948 71.1392 43.422 71.0555 43.4346C70.2847 43.5533 69.5122 43.6609 68.754 43.8366C68.6087 43.8698 68.4381 44.1848 68.4381 44.3731C68.4081 45.973 68.4192 47.5713 68.4192 49.168L68.4144 49.1664ZM75.6931 39.0717L75.9253 39.1129C76.4624 38.1792 76.5334 37.5683 76.0454 37.2534C75.9269 37.8896 75.8195 38.4814 75.6978 39.0733L75.6931 39.0717ZM60.8783 33.0424L60.5892 33.0108C60.4839 33.5583 60.3786 34.1059 60.2733 34.6534L60.605 34.7183C60.6903 34.1581 61.1816 33.677 60.8783 33.0424Z" fill="white"/>
<path d="M57.3938 24.9369L70.8644 33.0598C70.3257 33.5678 69.8613 34.0552 69.3417 34.4714C69.1837 34.5948 68.8678 34.5569 68.6372 34.5315C67.5567 34.416 66.7243 35.1297 66.8696 36.1805C66.9518 36.7818 66.7717 37.1426 66.3547 37.5145C66.0261 37.8089 65.7766 38.1903 65.4069 38.6223L57.2579 25.0651L57.3938 24.9369Z" fill="white"/>
<path d="M79.3388 47.1677L65.7545 38.9752C66.3405 38.4751 66.8222 38.0257 67.3435 37.6411C67.5334 37.5372 67.7539 37.5042 67.9659 37.5478C69.1774 37.7282 69.9845 36.9148 69.8203 35.6883C69.7903 35.4402 69.8521 35.1897 69.994 34.9841C70.3842 34.4951 70.8375 34.0536 71.3209 33.533C74.0883 38.1222 76.7767 42.5927 79.4667 47.057L79.3388 47.1677Z" fill="white"/>
<path d="M69.6955 27.8344C70.4316 28.0687 71.2198 28.2063 71.8879 28.5671C72.5103 28.9042 72.9731 28.8298 73.5449 28.5276C74.8781 27.8202 76.2397 27.1651 77.625 26.4703L73.8908 30.2446L69.645 28.0892C69.6592 28.0101 69.6781 27.9183 69.6955 27.8344Z" fill="white"/>
<path d="M81.6244 35.9684C79.9706 35.9684 78.3168 35.9859 76.663 35.9447C76.4671 35.9447 76.1244 35.6187 76.1149 35.4288C76.0422 34.1628 75.5794 33.0361 74.9792 31.9473C74.8797 31.7669 74.9112 31.5137 74.8828 31.2938C75.0534 31.4219 75.2935 31.5137 75.3788 31.6831C75.6947 32.2876 75.9095 32.9395 76.2349 33.5346C76.3925 33.8417 76.6468 34.0881 76.9584 34.2356C78.5032 34.799 80.0701 35.3022 81.6307 35.8181L81.6244 35.9684Z" fill="white"/>
<path d="M55.1823 36.1409H60.2907C60.8293 37.7377 61.3379 39.2474 61.845 40.7555L61.5496 40.8662C61.2068 40.1494 60.8025 39.4547 60.545 38.7093C60.4774 38.4615 60.3454 38.2361 60.1626 38.056C59.9797 37.8758 59.7525 37.7474 59.5041 37.6839C58.0493 37.2313 56.6087 36.7344 55.1634 36.2596L55.1823 36.1409Z" fill="white"/>
<path d="M59.2972 45.4966L62.867 41.8664L67.015 43.9933L66.9486 44.2132C66.2678 44.0012 65.5349 43.8841 64.9189 43.5502C64.2286 43.1751 63.6868 43.2337 63.0234 43.5929C61.7613 44.2987 60.4376 44.9222 59.2972 45.4966Z" fill="white"/>
<path d="M68.2992 28.1684L65.3722 28.6811L65.2048 28.3646C66.6374 28.2902 66.6769 27.1698 66.9881 26.2583C67.4004 25.054 67.8016 23.8466 68.2992 22.6613V28.1684Z" fill="white"/>
<path d="M68.4192 49.168C68.4192 47.5713 68.4081 45.973 68.4334 44.3746C68.4334 44.1863 68.6071 43.8714 68.7493 43.8382C69.5075 43.6625 70.2799 43.5549 71.0507 43.4362C71.1344 43.4236 71.2324 43.4964 71.6162 43.6372C69.8597 43.941 69.9877 45.3273 69.5628 46.3433C69.1805 47.2722 68.9167 48.2517 68.6008 49.2107L68.4192 49.168Z" fill="white"/>
<path d="M75.6979 39.0733C75.8116 38.4814 75.9269 37.8896 76.0501 37.255C76.5382 37.5715 76.4671 38.1808 75.9301 39.1144L75.6979 39.0733Z" fill="white"/>
<path d="M60.8783 33.0424C61.1816 33.6754 60.6904 34.1581 60.6003 34.7183L60.2686 34.6534C60.3739 34.1059 60.4792 33.5583 60.5845 33.0108L60.8783 33.0424Z" fill="white"/>
<path d="M26.8843 87.0972V84.6142H27.8321C28.0046 84.6112 28.1764 84.639 28.3391 84.6965C28.4803 84.7467 28.6079 84.8291 28.7119 84.9371C28.816 85.048 28.8947 85.1803 28.9425 85.3248C28.9988 85.493 29.0261 85.6696 29.0231 85.847C29.0242 86.0131 29.0007 86.1784 28.9536 86.3376C28.9084 86.4843 28.8324 86.6197 28.7309 86.7348C28.6197 86.8544 28.4816 86.9455 28.3281 87.0006C28.1319 87.07 27.9247 87.1027 27.7168 87.0972H26.8843ZM27.3724 86.7031H27.7152C27.8806 86.712 28.0451 86.673 28.1891 86.5908C28.3039 86.5186 28.3921 86.4108 28.4402 86.2838C28.4926 86.142 28.5183 85.9918 28.516 85.8407C28.5177 85.7252 28.5028 85.6101 28.4718 85.4989C28.4445 85.402 28.3971 85.3119 28.3328 85.2346C28.2688 85.1593 28.1867 85.1016 28.0943 85.0668C27.9839 85.0251 27.8664 85.0052 27.7484 85.0083H27.374V86.7031H27.3724Z" fill="white"/>
<path d="M31.1824 87.0972V84.6142H31.6799V87.0972H31.1824Z" fill="white"/>
<path d="M34.7285 87.1399C34.6226 87.1402 34.5169 87.1312 34.4126 87.113C34.3116 87.0971 34.2119 87.0744 34.114 87.0449C34.0376 87.024 33.9631 86.9965 33.8913 86.9627L33.9277 86.5211C34.0078 86.566 34.0912 86.6046 34.1772 86.6367C34.2604 86.6722 34.3466 86.7002 34.4347 86.7205C34.519 86.7374 34.6047 86.7459 34.6906 86.7459C34.7687 86.7472 34.8466 86.736 34.9212 86.7126C34.9831 86.6952 35.0382 86.6593 35.0792 86.6098C35.1187 86.5594 35.1389 86.4965 35.136 86.4325C35.1379 86.3983 35.1327 86.364 35.1208 86.3319C35.1088 86.2997 35.0904 86.2704 35.0665 86.2458C35.0114 86.1915 34.9458 86.149 34.8738 86.1208C34.7751 86.0808 34.6744 86.046 34.5721 86.0163C34.4369 85.9759 34.3058 85.9229 34.1804 85.8581C34.08 85.8063 33.9945 85.7294 33.9324 85.635C33.8717 85.5287 33.8421 85.4075 33.8471 85.2852C33.8446 85.155 33.8774 85.0265 33.9419 84.9133C34.0098 84.8024 34.1101 84.7151 34.2294 84.6633C34.3786 84.5981 34.5404 84.5668 34.7032 84.5715C34.8538 84.5737 35.0037 84.5923 35.1502 84.6269C35.2213 84.6443 35.2861 84.6633 35.3461 84.6839C35.4003 84.7029 35.453 84.7256 35.5041 84.7519L35.463 85.1934C35.3913 85.1474 35.3157 85.1076 35.2371 85.0747C35.161 85.0435 35.0822 85.0192 35.0018 85.002C34.9322 84.9868 34.8613 84.9789 34.7901 84.9782C34.7178 84.9767 34.6457 84.9874 34.5769 85.0099C34.5162 85.0274 34.4616 85.0614 34.4189 85.108C34.3803 85.1515 34.3595 85.208 34.3605 85.2662C34.3589 85.3235 34.3773 85.3794 34.4126 85.4245C34.4562 85.4736 34.5102 85.5125 34.5705 85.5384C34.6633 85.5799 34.7588 85.6148 34.8564 85.6429C35.0204 85.6894 35.1791 85.7525 35.3303 85.8312C35.4317 85.8827 35.5161 85.9624 35.5736 86.0606C35.6255 86.1652 35.6505 86.281 35.6462 86.3977C35.6493 86.5328 35.616 86.6661 35.5499 86.7838C35.4793 86.9 35.3744 86.9912 35.2498 87.0449C35.0848 87.1136 34.907 87.146 34.7285 87.1399Z" fill="white"/>
<path d="M38.9443 87.1399C38.7605 87.1433 38.5777 87.1116 38.4057 87.0465C38.2516 86.9897 38.1119 86.8995 37.9966 86.7823C37.8835 86.6661 37.7958 86.5276 37.7391 86.3756C37.6775 86.2096 37.647 86.0336 37.6491 85.8565C37.6469 85.6249 37.7011 85.3962 37.807 85.1903C37.9059 85 38.0558 84.841 38.2398 84.7314C38.4431 84.6191 38.6729 84.5644 38.9048 84.5731C38.9841 84.5735 39.0632 84.5788 39.1418 84.5889C39.2174 84.5991 39.2923 84.6139 39.3661 84.6332C39.4372 84.6522 39.5035 84.6728 39.5635 84.695C39.6179 84.7146 39.6708 84.7384 39.7215 84.7662L39.6836 85.2235C39.601 85.1707 39.5138 85.1256 39.4229 85.089C39.3442 85.0555 39.2621 85.0306 39.1781 85.0146C39.1038 84.9991 39.0281 84.9912 38.9522 84.9909C38.8092 84.9886 38.6681 85.0241 38.5431 85.0937C38.4222 85.1635 38.324 85.2668 38.2604 85.3913C38.1883 85.5388 38.153 85.7018 38.1577 85.866C38.1569 85.9811 38.1751 86.0955 38.2114 86.2047C38.245 86.3076 38.2987 86.4028 38.3694 86.4848C38.4426 86.5675 38.5332 86.6329 38.6347 86.6762C38.7525 86.724 38.8789 86.7472 39.0059 86.7443C39.0622 86.7402 39.1182 86.7323 39.1734 86.7205C39.2311 86.713 39.2882 86.7008 39.344 86.6842C39.4015 86.6674 39.4576 86.6457 39.5114 86.6193C39.5691 86.5896 39.6245 86.5557 39.6773 86.518L39.7057 86.969C39.6557 86.9991 39.6028 87.024 39.5477 87.0434C39.4864 87.0656 39.4236 87.0836 39.3598 87.0972C39.293 87.1113 39.2255 87.1213 39.1576 87.1272C39.0818 87.1367 39.0154 87.1399 38.9443 87.1399Z" fill="white"/>
<path d="M43.0465 87.1399C42.8509 87.1448 42.6564 87.1098 42.4747 87.037C42.3218 86.9749 42.1851 86.8786 42.0751 86.7554C41.9708 86.6356 41.8913 86.4963 41.8413 86.3455C41.789 86.1878 41.7629 86.0226 41.7639 85.8565C41.7605 85.6299 41.8097 85.4057 41.9076 85.2014C42.002 85.0087 42.1501 84.8476 42.3341 84.7377C42.5466 84.617 42.7882 84.5574 43.0323 84.5652C43.2219 84.5614 43.4103 84.5953 43.5867 84.6649C43.7382 84.7266 43.8742 84.8212 43.9848 84.9418C44.0917 85.0614 44.1734 85.2013 44.2249 85.3533C44.2783 85.5145 44.305 85.6835 44.3038 85.8533C44.3077 86.0817 44.258 86.3077 44.1585 86.5132C44.063 86.7044 43.9144 86.8638 43.7305 86.9722C43.522 87.0895 43.2855 87.1475 43.0465 87.1399ZM43.037 86.7348C43.1537 86.7375 43.2694 86.7132 43.3751 86.6636C43.4685 86.6188 43.5498 86.552 43.612 86.4689C43.6755 86.3844 43.7232 86.2889 43.7526 86.1872C43.7832 86.0786 43.7987 85.9662 43.7984 85.8533C43.7991 85.7364 43.7821 85.6201 43.7478 85.5084C43.7172 85.4059 43.6674 85.3103 43.6009 85.2267C43.5371 85.1462 43.4554 85.0818 43.3624 85.0384C43.2602 84.9922 43.1491 84.9695 43.037 84.9719C42.9221 84.969 42.808 84.9928 42.7037 85.0415C42.6095 85.0858 42.5272 85.152 42.4636 85.2346C42.3974 85.3187 42.348 85.4149 42.3183 85.5179C42.2851 85.6265 42.2685 85.7397 42.2694 85.8533C42.2687 85.9674 42.2847 86.081 42.3167 86.1904C42.3467 86.2922 42.3949 86.3876 42.4589 86.4721C42.5224 86.5547 42.6047 86.6209 42.699 86.6652C42.805 86.7135 42.9206 86.7373 43.037 86.7348Z" fill="white"/>
<path d="M47.0017 87.0972C46.9622 86.9722 46.918 86.8408 46.8722 86.7C46.8264 86.5591 46.7853 86.4294 46.7458 86.3107L46.4915 85.5321C46.4631 85.4435 46.4315 85.3469 46.3968 85.2425C46.362 85.1365 46.3288 85.0304 46.2941 84.926C46.2593 84.8216 46.2246 84.7171 46.193 84.6174H46.7316C46.7806 84.7757 46.8311 84.9561 46.8896 85.1428C46.948 85.3295 46.9938 85.5036 47.0396 85.665L47.3129 86.6034H47.3508L47.6336 85.654C47.6825 85.4957 47.7347 85.3153 47.7915 85.1349C47.8484 84.9545 47.8974 84.7804 47.9495 84.6111H48.4755C48.4423 84.7108 48.4091 84.8152 48.3744 84.9276L48.2717 85.2441C48.2385 85.3454 48.2069 85.4435 48.1754 85.5353L47.921 86.317L47.7947 86.7063C47.7504 86.844 47.7062 86.9769 47.6652 87.1019L47.0017 87.0972Z" fill="white"/>
<path d="M50.5574 87.0972V84.6142H52.167V85.0209H50.7722L51.0328 84.6902V87.0228L50.8038 86.6905H52.178V87.0972H50.5574ZM50.9238 86.0353V85.6508H52.1069V86.0353H50.9238Z" fill="white"/>
<path d="M54.3641 87.0972V84.6143H55.285C55.4534 84.6102 55.6214 84.6332 55.7826 84.6823C55.9071 84.7179 56.0154 84.7956 56.089 84.9023C56.1646 85.0268 56.2009 85.1713 56.1933 85.3169C56.1943 85.449 56.1663 85.5798 56.1111 85.6998C56.0526 85.8171 55.9586 85.9129 55.8426 85.9736C55.6906 86.0485 55.5222 86.0838 55.3529 86.0765L55.5314 85.8818L55.8868 86.3787C55.9421 86.4547 56.0021 86.537 56.0638 86.624L56.2328 86.8788L56.3907 87.0988H55.8347L55.6373 86.8108L55.4525 86.5417L55.037 85.9293L55.3293 86.173H54.7543V85.7964H55.1887C55.2813 85.7989 55.3738 85.7855 55.4619 85.7568C55.5304 85.7338 55.5889 85.688 55.6278 85.6271C55.6679 85.5506 55.687 85.4649 55.6831 85.3786C55.6863 85.3116 55.6733 85.2448 55.6452 85.1839C55.6239 85.1374 55.5893 85.0983 55.5457 85.0716C55.5041 85.0459 55.458 85.0287 55.4098 85.021C55.3607 85.0134 55.311 85.0097 55.2613 85.0099H54.4952L54.838 84.6934V87.1004L54.3641 87.0972Z" fill="white"/>
<path d="M63.2824 87.0972V84.6142H63.7705V87.0196L63.5999 86.6699H64.9204V87.0972H63.2824Z" fill="white"/>
<path d="M67.0355 87.0972V84.6142H67.533V87.0972H67.0355Z" fill="white"/>
<path d="M69.8171 87.0972V84.6142H70.3036V87.0972H69.8171ZM71.2719 87.0972L71.0254 86.7807L70.798 86.4895L70.4221 86.0147H70.2641V85.6128H70.4221L70.7538 85.2156L70.986 84.9355L71.2529 84.619H71.82L71.4867 85.0051C71.3777 85.1317 71.2687 85.2599 71.1581 85.3865L70.7459 85.8691L70.7364 85.6555L71.1976 86.2458L71.4251 86.537C71.5072 86.6414 71.583 86.7443 71.6652 86.8424L71.8674 87.1019L71.2719 87.0972Z" fill="white"/>
<path d="M73.9509 87.0972V84.6142H75.5604V85.0209H74.1673L74.4279 84.6902V87.0228L74.1973 86.6905H75.5731V87.0972H73.9509ZM74.3173 86.0353V85.6508H75.5036V86.0353H74.3205H74.3173Z" fill="white"/>
<path d="M82.3747 87.0972C82.4205 86.9642 82.4679 86.8234 82.5169 86.6762C82.5658 86.529 82.6132 86.3882 82.6574 86.2553L82.9465 85.4055C82.9992 85.2504 83.0465 85.1111 83.0887 84.9877C83.1297 84.8643 83.1724 84.7392 83.2134 84.6142H83.8453C83.8879 84.744 83.929 84.8706 83.9716 84.994C84.0143 85.1175 84.0601 85.2536 84.1106 85.4055L84.395 86.2584C84.4424 86.3945 84.4897 86.5354 84.5371 86.681C84.5861 86.8266 84.6335 86.9642 84.6761 87.0972H84.1754C84.1328 86.9611 84.0901 86.8218 84.0459 86.6778L83.9211 86.2695L83.5436 85.0336H83.5057L83.125 86.2553C83.0839 86.3898 83.0397 86.529 82.9955 86.6746C82.9512 86.8202 82.907 86.9611 82.8644 87.0972H82.3747ZM82.926 86.5433L82.9749 86.1746H84.1312L84.1707 86.5433H82.926Z" fill="white"/>
<path d="M91.5646 87.0972V84.6142H92.0527V87.0196L91.8806 86.6699H93.1948V87.0972H91.5646Z" fill="white"/>
<path d="M96.4076 87.1399C96.212 87.1448 96.0175 87.1098 95.8358 87.037C95.6829 86.9749 95.5462 86.8786 95.4362 86.7554C95.3313 86.636 95.2518 86.4966 95.2024 86.3455C95.1501 86.1878 95.1239 86.0226 95.125 85.8565C95.1216 85.6299 95.1708 85.4057 95.2687 85.2014C95.3631 85.0087 95.5112 84.8476 95.6952 84.7377C95.9077 84.617 96.1493 84.5574 96.3934 84.5652C96.5829 84.5614 96.7714 84.5953 96.9478 84.6649C97.0993 84.7266 97.2353 84.8212 97.3459 84.9418C97.4528 85.061 97.534 85.2011 97.5844 85.3533C97.6391 85.5142 97.6663 85.6833 97.6649 85.8533C97.6688 86.0817 97.619 86.3077 97.5196 86.5132C97.4241 86.7044 97.2754 86.8638 97.0915 86.9722C96.8831 87.0895 96.6466 87.1475 96.4076 87.1399ZM96.3981 86.7348C96.5148 86.7375 96.6305 86.7132 96.7361 86.6636C96.8296 86.6188 96.9109 86.552 96.9731 86.4689C97.0366 86.3844 97.0843 86.2889 97.1137 86.1872C97.1443 86.0786 97.1598 85.9662 97.1595 85.8533C97.1602 85.7364 97.1432 85.6201 97.1089 85.5084C97.0783 85.4059 97.0285 85.3103 96.962 85.2267C96.8982 85.1462 96.8165 85.0818 96.7235 85.0384C96.6213 84.9922 96.5102 84.9695 96.3981 84.9719C96.2831 84.969 96.1691 84.9928 96.0648 85.0415C95.9706 85.0858 95.8882 85.152 95.8247 85.2346C95.7585 85.3187 95.7091 85.4149 95.6794 85.5179C95.6461 85.6265 95.6296 85.7397 95.6304 85.8533C95.6298 85.9674 95.6458 86.081 95.6778 86.1904C95.7071 86.2924 95.7554 86.388 95.82 86.4721C95.8835 86.5547 95.9658 86.6209 96.0601 86.6652C96.1661 86.7136 96.2816 86.7374 96.3981 86.7348Z" fill="white"/>
<path d="M100.988 87.1399C100.805 87.1432 100.622 87.1115 100.45 87.0465C100.296 86.9893 100.157 86.8991 100.042 86.7823C99.9286 86.6662 99.8404 86.5277 99.7832 86.3756C99.7229 86.2092 99.6929 86.0334 99.6947 85.8565C99.6925 85.6249 99.7467 85.3962 99.8527 85.1903C99.9504 84.9997 100.1 84.8406 100.284 84.7313C100.488 84.6191 100.718 84.5644 100.95 84.5731C101.03 84.5736 101.109 84.5789 101.187 84.5889C101.263 84.5993 101.338 84.6141 101.412 84.6332C101.483 84.6522 101.549 84.6728 101.609 84.695C101.664 84.7145 101.716 84.7384 101.767 84.7662L101.729 85.2235C101.646 85.1713 101.559 85.1263 101.469 85.089C101.39 85.0557 101.308 85.0308 101.224 85.0146C101.149 84.9991 101.074 84.9912 100.998 84.9909C100.855 84.9884 100.714 85.0239 100.589 85.0937C100.468 85.1635 100.37 85.2668 100.306 85.3912C100.233 85.5386 100.198 85.7017 100.203 85.866C100.203 85.9809 100.22 86.0952 100.255 86.2046C100.289 86.3076 100.343 86.4028 100.413 86.4848C100.487 86.5675 100.577 86.6329 100.679 86.6762C100.797 86.7242 100.923 86.7473 101.05 86.7443C101.106 86.7445 101.162 86.7408 101.217 86.7332C101.275 86.7256 101.332 86.7135 101.388 86.6968C101.446 86.6803 101.503 86.6586 101.557 86.6319C101.612 86.6023 101.665 86.5684 101.715 86.5306L101.745 86.9817C101.695 87.0115 101.642 87.0364 101.587 87.056C101.525 87.0784 101.462 87.0964 101.397 87.1098C101.331 87.1241 101.263 87.1341 101.195 87.1399C101.126 87.1367 101.058 87.1399 100.988 87.1399Z" fill="white"/>
<path d="M103.746 87.0972C103.792 86.9642 103.84 86.8234 103.889 86.6762C103.937 86.529 103.985 86.3882 104.029 86.2553L104.318 85.4055C104.371 85.2504 104.418 85.1111 104.46 84.9877C104.501 84.8643 104.544 84.7392 104.585 84.6142H105.217C105.261 84.744 105.302 84.8706 105.345 84.994C105.388 85.1175 105.433 85.2536 105.484 85.4055L105.768 86.2584C105.816 86.3945 105.863 86.5354 105.91 86.681C105.959 86.8266 106.007 86.9642 106.049 87.0972H105.547L105.419 86.6778L105.294 86.2695L104.917 85.0336H104.884L104.503 86.2553C104.462 86.3898 104.418 86.529 104.373 86.6746C104.329 86.8202 104.285 86.9611 104.242 87.0972H103.746ZM104.298 86.5433L104.345 86.1746H105.503L105.542 86.5433H104.298Z" fill="white"/>
<path d="M108.133 87.0972V84.6142H108.622V87.0196L108.45 86.6699H109.763V87.0972H108.133Z" fill="white"/>
</svg>
