<svg width="50" height="40" viewBox="0 0 50 40" fill="none" xmlns="http://www.w3.org/2000/svg">
<path d="M45.6524 25.6615V25.1692H45.526L45.3787 25.4974L45.2313 25.1692H45.105V25.6615H45.1892V25.2923L45.3366 25.6205H45.4418L45.5892 25.2923V25.6615H45.6524ZM44.8103 25.6615V25.2513H44.9787V25.1692H44.5576V25.2513H44.726V25.6615H44.8103Z" fill="#00A2E5"/>
<path d="M30.6839 27.7744H19.2944V7.83589H30.6839V27.7744Z" fill="#7375CF"/>
<path d="M20.0315 17.8051C20.0315 13.7641 21.9683 10.1538 24.9999 7.8359C22.7894 6.13333 19.9894 5.1282 16.9578 5.1282C9.77884 5.1282 3.94727 10.8103 3.94727 17.8051C3.94727 24.8 9.77884 30.482 16.9578 30.482C19.9894 30.482 22.7894 29.4769 24.9999 27.7744C21.9683 25.4564 20.0315 21.8462 20.0315 17.8051Z" fill="#EB001B"/>
<path d="M46.0526 17.8051C46.0526 24.8 40.2211 30.482 33.0421 30.482C30.0105 30.482 27.2105 29.4769 25 27.7744C28.0316 25.4564 29.9684 21.8462 29.9684 17.8051C29.9684 13.7641 28.0316 10.1538 25 7.8359C27.2105 6.13333 30.0105 5.1282 33.0421 5.1282C40.2211 5.1282 46.0526 10.8103 46.0526 17.8051Z" fill="#00A2E5"/>
<path d="M34.5158 33.4154C34.6632 33.4154 34.8948 33.4359 35.0421 33.4974L34.8105 34.1949C34.6421 34.1333 34.4948 34.1128 34.3474 34.1128C33.8632 34.1128 33.6105 34.4205 33.6105 34.9744V36.8615H32.8527V33.4974H33.5895V33.9077C33.8 33.6 34.0948 33.4154 34.5158 33.4154ZM31.7369 34.1538H30.5158V35.6718C30.5158 36 30.6421 36.2256 31.0211 36.2256C31.2105 36.2256 31.4632 36.1641 31.6948 36.041L31.9053 36.6769C31.6737 36.841 31.2948 36.9436 30.9579 36.9436C30.0737 36.9436 29.7579 36.4718 29.7579 35.6923V34.1538H29.0632V33.4769H29.7579V32.4513H30.5158V33.4769H31.7369V34.1538ZM22.1158 34.8718C22.2 34.3795 22.4948 34.0513 23.0421 34.0513C23.5263 34.0513 23.8421 34.3385 23.9263 34.8718H22.1158ZM24.7053 35.1795C24.7053 34.1333 24.0316 33.4154 23.0632 33.4154C22.0527 33.4154 21.3369 34.1333 21.3369 35.1795C21.3369 36.2462 22.0737 36.9436 23.1053 36.9436C23.6316 36.9436 24.0948 36.8205 24.5158 36.4718L24.1369 35.9385C23.8421 36.1641 23.4842 36.2872 23.1263 36.2872C22.6421 36.2872 22.2 36.0615 22.0948 35.4667H24.6632C24.6842 35.3641 24.7053 35.282 24.7053 35.1795ZM28.0105 34.359C27.8 34.2359 27.379 34.0718 26.9369 34.0718C26.5158 34.0718 26.2842 34.2154 26.2842 34.4615C26.2842 34.6872 26.5369 34.7487 26.8737 34.7897L27.2316 34.8308C27.9895 34.9333 28.4316 35.241 28.4316 35.8359C28.4316 36.4718 27.8632 36.9436 26.8527 36.9436C26.2842 36.9436 25.7579 36.8 25.3579 36.5128L25.7158 35.9385C25.9684 36.1231 26.3474 36.2872 26.8737 36.2872C27.379 36.2872 27.6527 36.1436 27.6527 35.8769C27.6527 35.6923 27.4632 35.5897 27.0421 35.5282L26.6842 35.4872C25.9053 35.3846 25.4842 35.0359 25.4842 34.5026C25.4842 33.8256 26.0527 33.4154 26.9158 33.4154C27.4632 33.4154 27.9684 33.5385 28.3263 33.7641L28.0105 34.359ZM37.2737 34.0923C37.1263 34.0923 36.979 34.1128 36.8527 34.1744C36.7263 34.2359 36.6 34.2974 36.5158 34.4C36.4316 34.5026 36.3474 34.6051 36.2842 34.7487C36.2211 34.8718 36.2 35.0359 36.2 35.1795C36.2 35.3436 36.2211 35.4872 36.2842 35.6103C36.3474 35.7333 36.4105 35.8564 36.5158 35.959C36.6211 36.0615 36.7263 36.1231 36.8527 36.1846C36.979 36.2461 37.1263 36.2667 37.2737 36.2667C37.4211 36.2667 37.5684 36.2461 37.6948 36.1846C37.8211 36.1231 37.9474 36.0615 38.0316 35.959C38.1369 35.8564 38.2 35.7538 38.2632 35.6103C38.3263 35.4872 38.3474 35.3231 38.3474 35.1795C38.3474 35.0154 38.3263 34.8718 38.2632 34.7487C38.2 34.6256 38.1369 34.5026 38.0316 34.4C37.9263 34.2974 37.8211 34.2359 37.6948 34.1744C37.5684 34.1333 37.4211 34.0923 37.2737 34.0923ZM37.2737 33.4154C37.5474 33.4154 37.8 33.4564 38.0105 33.559C38.2421 33.641 38.4316 33.7641 38.6 33.9282C38.7684 34.0923 38.8948 34.2769 39 34.482C39.0842 34.7077 39.1474 34.9333 39.1474 35.1795C39.1474 35.4256 39.1053 35.6718 39 35.8769C38.9158 36.1026 38.7684 36.2872 38.6 36.4308C38.4316 36.5949 38.2421 36.7179 38.0105 36.8C37.779 36.882 37.5263 36.9436 37.2737 36.9436C37 36.9436 36.7474 36.9026 36.5369 36.8C36.3053 36.7179 36.1158 36.5949 35.9474 36.4308C35.779 36.2667 35.6527 36.082 35.5474 35.8769C35.4632 35.6513 35.4 35.4256 35.4 35.1795C35.4 34.9333 35.4421 34.6872 35.5474 34.482C35.6316 34.2564 35.779 34.0718 35.9474 33.9282C36.1158 33.7641 36.3053 33.641 36.5369 33.559C36.7474 33.4564 37 33.4154 37.2737 33.4154ZM17.7369 35.1795C17.7369 34.5846 18.1369 34.0923 18.7895 34.0923C19.4211 34.0923 19.8211 34.5641 19.8211 35.1795C19.8211 35.7949 19.4 36.2461 18.7895 36.2461C18.1369 36.2461 17.7369 35.7744 17.7369 35.1795ZM20.5369 35.1795V33.4974H19.779V33.9077C19.5474 33.6 19.1895 33.4154 18.6842 33.4154C17.7158 33.4154 16.9579 34.1538 16.9579 35.1795C16.9579 36.2051 17.7158 36.9436 18.6842 36.9436C19.1684 36.9436 19.5263 36.759 19.779 36.4513V36.8615H20.5369V35.1795ZM16.3053 36.8615V34.7487C16.3053 33.9487 15.779 33.4154 14.9369 33.4154C14.4948 33.4154 14.0316 33.5385 13.7158 34.0103C13.4842 33.641 13.1053 33.4154 12.579 33.4154C12.2211 33.4154 11.8421 33.5179 11.5684 33.9077V33.4974H10.8105V36.8615H11.5684V34.9949C11.5684 34.4205 11.9053 34.0923 12.4105 34.0923C12.9158 34.0923 13.1684 34.4 13.1684 34.9744V36.841H13.9263V34.9744C13.9263 34.4 14.2842 34.0718 14.7684 34.0718C15.2737 34.0718 15.5263 34.3795 15.5263 34.9538V36.8205H16.3053V36.8615Z" fill="black"/>
<path d="M39.9476 36.5949V36.6769H40.0318C40.0528 36.6769 40.0739 36.6769 40.0739 36.6564C40.0949 36.6564 40.0949 36.6359 40.0949 36.6154C40.0949 36.5949 40.0949 36.5949 40.0739 36.5949C40.0739 36.5949 40.0528 36.5744 40.0318 36.5744H39.9476V36.5949ZM40.0318 36.5538C40.0739 36.5538 40.0949 36.5538 40.116 36.5744C40.137 36.5949 40.1581 36.6154 40.1581 36.6564C40.1581 36.6769 40.1581 36.6974 40.137 36.718C40.116 36.7385 40.0949 36.7385 40.0528 36.7385L40.1581 36.8615H40.0739L39.9686 36.7385H39.9476V36.8615H39.8844V36.5538H40.0318ZM40.0107 36.9641C40.0528 36.9641 40.0739 36.9641 40.116 36.9436C40.1581 36.9231 40.1791 36.9026 40.2002 36.8821C40.2213 36.8615 40.2423 36.841 40.2634 36.8C40.2844 36.759 40.2844 36.7385 40.2844 36.6974C40.2844 36.6564 40.2844 36.6359 40.2634 36.5949C40.2423 36.5538 40.2213 36.5333 40.2002 36.5128C40.1791 36.4923 40.1581 36.4718 40.116 36.4513C40.0949 36.4308 40.0528 36.4308 40.0107 36.4308C39.9686 36.4308 39.9476 36.4308 39.9055 36.4513C39.8634 36.4718 39.8423 36.4923 39.8213 36.5128C39.8002 36.5333 39.7791 36.5744 39.7581 36.5949C39.737 36.6359 39.737 36.6564 39.737 36.6974C39.737 36.7385 39.737 36.759 39.7581 36.8C39.7791 36.841 39.8002 36.8615 39.8213 36.8821C39.8423 36.9026 39.8844 36.9231 39.9055 36.9436C39.9476 36.9641 39.9686 36.9641 40.0107 36.9641ZM40.0107 36.3692C40.0528 36.3692 40.0949 36.3692 40.137 36.3897C40.1791 36.4103 40.2213 36.4308 40.2423 36.4513C40.2634 36.4718 40.3055 36.5128 40.3265 36.5538C40.3476 36.5949 40.3476 36.6359 40.3476 36.6769C40.3476 36.718 40.3476 36.759 40.3265 36.8C40.3055 36.841 40.2844 36.8821 40.2423 36.9026C40.2002 36.9231 40.1791 36.9641 40.137 36.9846C40.0949 37.0051 40.0528 37.0051 40.0107 37.0051C39.9686 37.0051 39.9055 37.0051 39.8634 36.9846C39.8213 36.9641 39.7791 36.9436 39.7581 36.9026C39.737 36.8821 39.6949 36.841 39.6739 36.8C39.6528 36.759 39.6528 36.718 39.6528 36.6769C39.6528 36.6359 39.6528 36.5949 39.6739 36.5538C39.6949 36.5128 39.716 36.4718 39.7581 36.4513C39.7791 36.4308 39.8213 36.3897 39.8634 36.3897C39.9055 36.3692 39.9686 36.3692 40.0107 36.3692Z" fill="black"/>
</svg>
