<svg width="50" height="40" viewBox="0 0 50 40" fill="none" xmlns="http://www.w3.org/2000/svg">
<path d="M11.3603 35.9721V33.8354C11.3603 33.018 10.8624 32.4828 10.0077 32.4828C9.58034 32.4828 9.11565 32.6238 8.79618 33.0885C8.54723 32.6985 8.19042 32.4828 7.65519 32.4828C7.29837 32.4828 6.94156 32.5907 6.65942 32.9807V32.5533H5.9126V35.9721H6.65942V34.0843C6.65942 33.4785 6.9789 33.1923 7.47678 33.1923C7.97467 33.1923 8.22361 33.5117 8.22361 34.0843V35.9721H8.97043V34.0843C8.97043 33.4785 9.32725 33.1923 9.78779 33.1923C10.2857 33.1923 10.5346 33.5117 10.5346 34.0843V35.9721H11.3603ZM22.4382 32.5533H21.2267V31.5202H20.4799V32.5533H19.8036V33.2296H20.4799V34.7979C20.4799 35.5821 20.7993 36.0427 21.654 36.0427C21.9735 36.0427 22.3303 35.9348 22.5793 35.7937L22.3635 35.1506C22.1478 35.2917 21.8988 35.329 21.7204 35.329C21.3636 35.329 21.2225 35.1133 21.2225 34.7606V33.2296H22.434V32.5533H22.4382ZM28.7779 32.4786C28.3506 32.4786 28.0643 32.6944 27.8859 32.9765V32.5492H27.1391V35.968H27.8859V34.0428C27.8859 33.4744 28.1348 33.1508 28.5995 33.1508C28.7406 33.1508 28.919 33.1881 29.0642 33.2213L29.28 32.5077C29.1306 32.4786 28.919 32.4786 28.7779 32.4786ZM19.1978 32.8354C18.841 32.5865 18.3431 32.4786 17.8079 32.4786C16.9532 32.4786 16.3848 32.906 16.3848 33.5823C16.3848 34.1507 16.8121 34.4743 17.5589 34.578L17.9158 34.6154C18.3058 34.6859 18.5215 34.7938 18.5215 34.9722C18.5215 35.2211 18.2352 35.3996 17.7373 35.3996C17.2395 35.3996 16.8453 35.2211 16.5964 35.0427L16.2395 35.6112C16.6295 35.8974 17.1648 36.0385 17.7 36.0385C18.6958 36.0385 19.2683 35.5738 19.2683 34.9349C19.2683 34.3291 18.8036 34.0096 18.0942 33.9018L17.7373 33.8644C17.4179 33.8271 17.1689 33.7565 17.1689 33.5449C17.1689 33.296 17.4179 33.1549 17.812 33.1549C18.2394 33.1549 18.6667 33.3333 18.8825 33.4412L19.1978 32.8354ZM39.0675 32.4786C38.6402 32.4786 38.3539 32.6944 38.1755 32.9765V32.5492H37.4287V35.968H38.1755V34.0428C38.1755 33.4744 38.4244 33.1508 38.8891 33.1508C39.0302 33.1508 39.2086 33.1881 39.3538 33.2213L39.5696 32.516C39.4243 32.4786 39.2127 32.4786 39.0675 32.4786ZM29.5247 34.2627C29.5247 35.2958 30.2384 36.0427 31.342 36.0427C31.8399 36.0427 32.1967 35.9348 32.5535 35.6526L32.1967 35.0469C31.9104 35.2626 31.6283 35.3664 31.3047 35.3664C30.6989 35.3664 30.2716 34.939 30.2716 34.2627C30.2716 33.6196 30.6989 33.1923 31.3047 33.1591C31.6242 33.1591 31.9104 33.2669 32.1967 33.4785L32.5535 32.8728C32.1967 32.5865 31.8399 32.4828 31.342 32.4828C30.2384 32.4786 29.5247 33.2296 29.5247 34.2627ZM36.4329 34.2627V32.5533H35.6861V32.9807C35.4371 32.6612 35.0803 32.4828 34.6156 32.4828C33.653 32.4828 32.9062 33.2296 32.9062 34.2627C32.9062 35.2958 33.653 36.0427 34.6156 36.0427C35.1135 36.0427 35.4703 35.8642 35.6861 35.5448V35.9721H36.4329V34.2627ZM33.6904 34.2627C33.6904 33.657 34.0804 33.1591 34.7235 33.1591C35.3292 33.1591 35.7566 33.6238 35.7566 34.2627C35.7566 34.8685 35.3292 35.3664 34.7235 35.3664C34.0845 35.329 33.6904 34.8643 33.6904 34.2627ZM24.7534 32.4786C23.7576 32.4786 23.044 33.1923 23.044 34.2586C23.044 35.329 23.7576 36.0385 24.7907 36.0385C25.2886 36.0385 25.7865 35.8974 26.1806 35.5738L25.8238 35.0386C25.5375 35.2543 25.1807 35.3954 24.828 35.3954C24.3633 35.3954 23.9028 35.1797 23.7949 34.578H26.3217C26.3217 34.4702 26.3217 34.3996 26.3217 34.2918C26.3549 33.1923 25.7118 32.4786 24.7534 32.4786ZM24.7534 33.1217C25.218 33.1217 25.5375 33.408 25.6081 33.9391H23.8281C23.8987 33.4785 24.2181 33.1217 24.7534 33.1217ZM43.3078 34.2627V31.2007H42.561V32.9807C42.3121 32.6612 41.9552 32.4828 41.4906 32.4828C40.528 32.4828 39.7812 33.2296 39.7812 34.2627C39.7812 35.2958 40.528 36.0427 41.4906 36.0427C41.9884 36.0427 42.3453 35.8642 42.561 35.5448V35.9721H43.3078V34.2627ZM40.5653 34.2627C40.5653 33.657 40.9553 33.1591 41.5984 33.1591C42.2042 33.1591 42.6315 33.6238 42.6315 34.2627C42.6315 34.8685 42.2042 35.3664 41.5984 35.3664C40.9553 35.329 40.5653 34.8643 40.5653 34.2627ZM15.5632 34.2627V32.5533H14.8164V32.9807C14.5675 32.6612 14.2107 32.4828 13.746 32.4828C12.7834 32.4828 12.0366 33.2296 12.0366 34.2627C12.0366 35.2958 12.7834 36.0427 13.746 36.0427C14.2439 36.0427 14.6007 35.8642 14.8164 35.5448V35.9721H15.5632V34.2627ZM12.7875 34.2627C12.7875 33.657 13.1776 33.1591 13.8207 33.1591C14.4264 33.1591 14.8538 33.6238 14.8538 34.2627C14.8538 34.8685 14.4264 35.3664 13.8207 35.3664C13.1776 35.329 12.7875 34.8643 12.7875 34.2627Z" fill="black"/>
<path d="M30.1677 6.58867H18.9487V26.7447H30.1677V6.58867Z" fill="#FF5A00"/>
<path d="M19.6955 16.6667C19.6955 12.5716 21.6206 8.93703 24.5748 6.58867C22.4007 4.87927 19.6582 3.84616 16.6667 3.84616C9.58015 3.84616 3.84619 9.58012 3.84619 16.6667C3.84619 23.7532 9.58015 29.4872 16.6667 29.4872C19.6582 29.4872 22.4007 28.4541 24.5748 26.7447C21.6165 24.4295 19.6955 20.7618 19.6955 16.6667Z" fill="#EB001B"/>
<path d="M45.3033 16.6667C45.3033 23.7532 39.5693 29.4872 32.4828 29.4872C29.4913 29.4872 26.7488 28.4541 24.5747 26.7447C27.5662 24.3922 29.454 20.7618 29.454 16.6667C29.454 12.5716 27.5288 8.93703 24.5747 6.58867C26.7447 4.87927 29.4872 3.84616 32.4786 3.84616C39.5693 3.84616 45.3033 9.61747 45.3033 16.6667Z" fill="#F79E1B"/>
</svg>
