<svg width="40" height="40" viewBox="0 0 40 40" fill="none" xmlns="http://www.w3.org/2000/svg">
<g id="icons / menu">
<path id="Vector (Stroke)" fill-rule="evenodd" clip-rule="evenodd" d="M5 11.875C5 10.8395 5.83947 10 6.875 10H33.125C34.1605 10 35 10.8395 35 11.875C35 12.9105 34.1605 13.75 33.125 13.75H6.875C5.83947 13.75 5 12.9105 5 11.875Z" fill="#081120"/>
<path id="Vector (Stroke)_2" fill-rule="evenodd" clip-rule="evenodd" d="M5 20C5 18.9645 5.83947 18.125 6.875 18.125H33.125C34.1605 18.125 35 18.9645 35 20C35 21.0355 34.1605 21.875 33.125 21.875H6.875C5.83947 21.875 5 21.0355 5 20Z" fill="#081120"/>
<path id="Vector (Stroke)_3" fill-rule="evenodd" clip-rule="evenodd" d="M5 28.125C5 27.0895 5.83947 26.25 6.875 26.25H33.125C34.1605 26.25 35 27.0895 35 28.125C35 29.1605 34.1605 30 33.125 30H6.875C5.83947 30 5 29.1605 5 28.125Z" fill="#081120"/>
</g>
</svg>
