<svg width="24" height="24" viewBox="0 0 24 24" fill="none" xmlns="http://www.w3.org/2000/svg">
<path fill-rule="evenodd" clip-rule="evenodd" d="M16.8098 5.0293C17.0835 5.02913 17.3461 5.13779 17.5396 5.33134L18.6693 6.46103C18.8628 6.65458 18.9715 6.91714 18.9713 7.19087C18.9712 7.46459 18.8622 7.72702 18.6684 7.92033L5.8809 20.6764C5.78508 20.772 5.67139 20.8478 5.54631 20.8995L3.67506 21.6724C3.28989 21.8315 2.84681 21.7432 2.55214 21.4485C2.25746 21.1538 2.1691 20.7107 2.32821 20.3256L3.10118 18.4543C3.15285 18.3292 3.22863 18.2156 3.32421 18.1197L16.0803 5.33224C16.2736 5.13845 16.536 5.02947 16.8098 5.0293Z" fill="#081120"/>
<path fill-rule="evenodd" clip-rule="evenodd" d="M19.2191 2.38743C19.4381 2.2967 19.6728 2.25 19.9099 2.25C20.147 2.25 20.3817 2.2967 20.6008 2.38743C20.8198 2.47815 21.0188 2.61112 21.1864 2.77875C21.1864 2.77876 21.1864 2.77878 21.1864 2.77879L21.2218 2.81418C21.5601 3.15267 21.7501 3.61162 21.7501 4.09014C21.7501 4.56867 21.5601 5.02761 21.2218 5.36611L20.6689 5.91903C20.2662 6.32176 19.6132 6.32176 19.2105 5.91903L18.0808 4.78934C17.8873 4.59589 17.7787 4.3335 17.7787 4.05992C17.7788 3.78634 17.8876 3.524 18.0811 3.33063L18.6334 2.77879C18.6335 2.77872 18.6336 2.77864 18.6336 2.77857C18.6337 2.77853 18.6337 2.77848 18.6338 2.77844C18.8013 2.61096 19.0002 2.4781 19.2191 2.38743ZM20.4923 4.63717L20.6689 4.46062L20.1219 3.91359L20.4923 3.54311L20.1217 3.91346L20.0867 3.87844L19.5392 3.33094" fill="#081120"/>
</svg>
