<svg width="16" height="18" viewBox="0 0 16 18" fill="none" xmlns="http://www.w3.org/2000/svg">
<path d="M2.23445 17.6252C1.94665 17.6246 1.66394 17.5492 1.41414 17.4063C0.851641 17.0875 0.501953 16.4688 0.501953 15.7971V2.2033C0.501953 1.52971 0.851641 0.912831 1.41414 0.594081C1.66989 0.447098 1.96043 0.371511 2.25539 0.375222C2.55034 0.378933 2.83889 0.461804 3.09086 0.615174L14.7088 7.56955C14.951 7.72137 15.1506 7.9322 15.2889 8.18227C15.4273 8.43234 15.4999 8.71345 15.4999 8.99924C15.4999 9.28503 15.4273 9.56614 15.2889 9.81621C15.1506 10.0663 14.951 10.2771 14.7088 10.4289L3.08898 17.3852C2.83112 17.5411 2.53577 17.624 2.23445 17.6252Z" fill="#4285F4"/>
</svg>
