<svg width="41" height="40" viewBox="0 0 41 40" fill="none" xmlns="http://www.w3.org/2000/svg">
<path d="M20.7021 3.75C11.6926 3.75 4.38818 11.0258 4.38818 20C4.38818 28.9742 11.6926 36.25 20.7021 36.25C29.7117 36.25 37.0161 28.9742 37.0161 20C37.0161 11.0258 29.7117 3.75 20.7021 3.75ZM28.2316 22.5H20.7021C20.3693 22.5 20.0501 22.3683 19.8148 22.1339C19.5794 21.8995 19.4472 21.5815 19.4472 21.25V10C19.4472 9.66848 19.5794 9.35054 19.8148 9.11612C20.0501 8.8817 20.3693 8.75 20.7021 8.75C21.035 8.75 21.3542 8.8817 21.5895 9.11612C21.8248 9.35054 21.9571 9.66848 21.9571 10V20H28.2316C28.5645 20 28.8837 20.1317 29.119 20.3661C29.3544 20.6005 29.4866 20.9185 29.4866 21.25C29.4866 21.5815 29.3544 21.8995 29.119 22.1339C28.8837 22.3683 28.5645 22.5 28.2316 22.5Z" fill="#617086"/>
</svg>
