<svg width="24" height="24" viewBox="0 0 24 24" fill="none" xmlns="http://www.w3.org/2000/svg">
<path d="M12 15C13.6569 15 15 13.6569 15 12C15 10.3431 13.6569 9 12 9C10.3431 9 9 10.3431 9 12C9 13.6569 10.3431 15 12 15Z" fill="#081120"/>
<path d="M23.0091 11.1844C21.7687 9.26625 20.1595 7.63688 18.3558 6.47203C16.3603 5.18203 14.1572 4.5 11.985 4.5C9.99187 4.5 8.03203 5.06953 6.15984 6.19266C4.25062 7.33781 2.52093 9.01078 1.01859 11.1647C0.84899 11.4081 0.755584 11.6965 0.750243 11.9931C0.744901 12.2897 0.827865 12.5813 0.988591 12.8306C2.22656 14.768 3.81984 16.3997 5.59547 17.5486C7.59468 18.8438 9.74625 19.5 11.985 19.5C14.1745 19.5 16.3823 18.8236 18.3694 17.5444C20.1722 16.3833 21.7781 14.7478 23.0137 12.8137C23.1689 12.5702 23.251 12.2872 23.2502 11.9984C23.2493 11.7096 23.1656 11.4271 23.0091 11.1844ZM12.0009 16.5C11.1109 16.5 10.2409 16.2361 9.50087 15.7416C8.76085 15.2471 8.18407 14.5443 7.84348 13.7221C7.50288 12.8998 7.41377 11.995 7.5874 11.1221C7.76103 10.2492 8.18962 9.44736 8.81895 8.81802C9.44829 8.18868 10.2501 7.7601 11.123 7.58647C11.9959 7.41283 12.9007 7.50195 13.723 7.84254C14.5453 8.18314 15.2481 8.75991 15.7425 9.49993C16.237 10.24 16.5009 11.11 16.5009 12C16.4996 13.1931 16.025 14.3369 15.1814 15.1805C14.3378 16.0241 13.194 16.4986 12.0009 16.5Z" fill="#081120"/>
</svg>
