<svg width="62" height="20" viewBox="0 0 62 20" fill="none" xmlns="http://www.w3.org/2000/svg">
<path d="M40.1119 0.0307922C35.7426 0.0307922 31.8379 2.29551 31.8379 6.47975C31.8379 11.2783 38.763 11.6097 38.763 14.0204C38.763 15.0354 37.5998 15.944 35.6131 15.944C32.7935 15.944 30.6862 14.6744 30.6862 14.6744L29.7845 18.8968C29.7845 18.8968 32.2121 19.9692 35.4351 19.9692C40.2122 19.9692 43.9712 17.5933 43.9712 13.3375C43.9712 8.26697 37.0173 7.94539 37.0173 5.7079C37.0173 4.91277 37.9722 4.04156 39.9533 4.04156C42.1885 4.04156 44.0121 4.9649 44.0121 4.9649L44.8946 0.886807C44.8946 0.886807 42.9103 0.0307922 40.1119 0.0307922ZM0.136561 0.338573L0.0307617 0.954134C0.0307617 0.954134 1.86896 1.29055 3.52455 1.96163C5.65626 2.73116 5.80812 3.17915 6.16713 4.57055L10.0793 19.6518H15.3236L23.4028 0.338573H18.1706L12.9792 13.4697L10.8608 2.33915C10.6665 1.06526 9.68244 0.338573 8.47789 0.338573H0.136561ZM25.5068 0.338573L21.4023 19.6518H26.3917L30.4818 0.338573H25.5068ZM53.3345 0.338573C52.1314 0.338573 51.4939 0.982705 51.0261 2.10831L43.7163 19.6518H48.9486L49.9609 16.7279H56.3353L56.9509 19.6518H61.5676L57.54 0.338573H53.3345ZM54.015 5.55641L55.5659 12.8037H51.4109L54.015 5.55641Z" fill="#1434CB"/>
</svg>
