<svg width="41" height="40" viewBox="0 0 41 40" fill="none" xmlns="http://www.w3.org/2000/svg">
<path d="M25.2425 37.4912L20.8174 28.5849L17.3177 24.1318C16.7999 23.2588 16.5274 22.263 16.5287 21.249V11.2209H17.7483C18.5804 11.2209 19.3783 11.5501 19.9667 12.1362C20.5551 12.7222 20.8856 13.5171 20.8856 14.3459V28.581" fill="#617086"/>
<path fill-rule="evenodd" clip-rule="evenodd" d="M15.2737 11.2209C15.2737 10.5305 15.8356 9.97089 16.5287 9.97089H17.7483C18.9132 9.97089 20.0304 10.4318 20.8541 11.2523C21.6778 12.0728 22.1405 13.1856 22.1405 14.3459V28.4299L26.3672 36.9367C26.6747 37.5555 26.4203 38.3053 25.7992 38.6115C25.178 38.9177 24.4252 38.6644 24.1178 38.0457L19.7498 29.2544L16.3295 24.9023C16.2958 24.8595 16.265 24.8145 16.2372 24.7676C15.6051 23.7018 15.2723 22.4862 15.2737 21.2483V11.2209ZM19.6307 25.0471V14.3459C19.6307 13.8486 19.4323 13.3717 19.0793 13.0201C18.7346 12.6767 18.27 12.4803 17.7836 12.4712L17.7836 21.2506C17.7826 22.0149 17.9813 22.7658 18.3596 23.4297L19.6307 25.0471Z" fill="#617086"/>
<path fill-rule="evenodd" clip-rule="evenodd" d="M11.9741 17.3152C12.0524 17.1704 12.1632 16.9704 12.3022 16.7329C12.6039 16.2174 13.0309 15.5373 13.5377 14.8641C14.0499 14.1836 14.6126 13.5518 15.1782 13.1012C15.7611 12.6368 16.2132 12.4709 16.5287 12.4709C17.2217 12.4709 17.7836 11.9112 17.7836 11.2209C17.7836 10.5305 17.2217 9.97089 16.5287 9.97089C15.3904 9.97089 14.3894 10.5283 13.6105 11.1489C12.8142 11.7833 12.1063 12.5982 11.5296 13.3644C10.9474 14.1378 10.4671 14.9045 10.1339 15.4739C9.9665 15.7599 9.83437 15.9993 9.74316 16.169C9.69752 16.254 9.66202 16.3217 9.63737 16.3692C9.62504 16.393 9.61541 16.4118 9.60858 16.4252C9.60516 16.4319 9.60244 16.4373 9.60043 16.4413L9.59795 16.4462L9.59679 16.4485C9.59665 16.4488 9.59653 16.449 10.7192 17.0076L9.59653 16.449C9.50954 16.6225 9.46426 16.8137 9.46426 17.0076V22.7943C9.46426 23.4847 10.0261 24.0443 10.7192 24.0443C11.4122 24.0443 11.9741 23.4847 11.9741 22.7943V17.3152Z" fill="#617086"/>
<path d="M29.5986 22.7967C29.3122 22.7967 29.0322 22.7121 28.7939 22.5538L24.0778 19.5327C23.8445 19.3828 23.6526 19.177 23.5197 18.9342C23.3868 18.6914 23.3171 18.4193 23.317 18.1428V16.2912C23.3169 16.212 23.3382 16.1343 23.3786 16.0661C23.4191 15.9979 23.4772 15.9418 23.5469 15.9037C23.6166 15.8656 23.6953 15.8469 23.7748 15.8495C23.8543 15.8521 23.9316 15.876 23.9986 15.9186L30.4026 20.1459C30.6621 20.3183 30.859 20.5692 30.9643 20.8616C31.0695 21.1541 31.0774 21.4725 30.9869 21.7698C30.8964 22.0671 30.7123 22.3274 30.4617 22.5124C30.2111 22.6973 29.9074 22.797 29.5955 22.7967H29.5986Z" fill="#617086"/>
<path d="M14.2118 38.5512C13.986 38.5515 13.7634 38.4993 13.5614 38.3988C13.3595 38.2983 13.1839 38.1523 13.0486 37.9723C12.567 37.3333 12.7349 36.6301 13.3388 35.9473L18.0408 30.1145C18.1056 30.0662 18.1797 30.0319 18.2585 30.0138C18.3373 29.9957 18.4191 29.9941 18.4985 30.0093C18.5779 30.0244 18.6533 30.0559 18.7198 30.1018C18.7863 30.1476 18.8425 30.2067 18.8848 30.2754C19.0071 30.4739 19.1499 30.7168 19.2918 30.9856C19.7028 31.7629 19.7624 32.2442 19.1601 32.9934C18.5326 33.7747 15.0816 38.2622 15.0816 38.2622C14.8761 38.495 14.5145 38.5512 14.2118 38.5512Z" fill="#617086"/>
<path d="M20.8857 8.32888C22.4901 8.32888 23.7908 7.03331 23.7908 5.43513C23.7908 3.83696 22.4901 2.54138 20.8857 2.54138C19.2812 2.54138 17.9805 3.83696 17.9805 5.43513C17.9805 7.03331 19.2812 8.32888 20.8857 8.32888Z" fill="#617086"/>
<path fill-rule="evenodd" clip-rule="evenodd" d="M20.8857 3.16638C19.6277 3.16638 18.608 4.18214 18.608 5.43513C18.608 6.68813 19.6277 7.70388 20.8857 7.70388C22.1436 7.70388 23.1633 6.68813 23.1633 5.43513C23.1633 4.18214 22.1436 3.16638 20.8857 3.16638ZM17.3531 5.43513C17.3531 3.49178 18.9347 1.91638 20.8857 1.91638C22.8367 1.91638 24.4183 3.49178 24.4183 5.43513C24.4183 7.37848 22.8367 8.95388 20.8857 8.95388C18.9347 8.95388 17.3531 7.37848 17.3531 5.43513Z" fill="#617086"/>
</svg>
