<svg width="41" height="40" viewBox="0 0 41 40" fill="none" xmlns="http://www.w3.org/2000/svg">
<path d="M24.5142 37.4912L20.089 28.5849L16.5893 24.1318C16.0715 23.2587 15.799 22.263 15.8003 21.249V11.2209H17.0199C17.852 11.2209 18.65 11.5501 19.2383 12.1362C19.8267 12.7222 20.1572 13.5171 20.1572 14.3459V28.581" fill="#617086"/>
<path fill-rule="evenodd" clip-rule="evenodd" d="M14.5454 11.2209C14.5454 10.5305 15.1073 9.97088 15.8003 9.97088H17.02C18.1849 9.97088 19.302 10.4318 20.1257 11.2523C20.9494 12.0728 21.4122 13.1856 21.4122 14.3459V28.4299L25.6389 36.9367C25.9463 37.5555 25.692 38.3053 25.0708 38.6115C24.4497 38.9177 23.6969 38.6644 23.3895 38.0456L19.0215 29.2544L15.6012 24.9023C15.5675 24.8595 15.5367 24.8145 15.5089 24.7676C14.8768 23.7017 14.544 22.4862 14.5454 21.2483V11.2209ZM18.9023 25.0471V14.3459C18.9023 13.8486 18.704 13.3717 18.351 13.0201C18.0063 12.6767 17.5417 12.4803 17.0553 12.4712L17.0553 21.2506C17.0543 22.0149 17.253 22.7658 17.6313 23.4297L18.9023 25.0471Z" fill="#617086"/>
<path fill-rule="evenodd" clip-rule="evenodd" d="M11.2457 17.3152C11.3239 17.1704 11.4348 16.9704 11.5738 16.7329C11.8755 16.2173 12.3025 15.5373 12.8092 14.8641C13.3214 14.1836 13.8842 13.5518 14.4498 13.1012C15.0327 12.6368 15.4848 12.4709 15.8002 12.4709C16.4933 12.4709 17.0552 11.9112 17.0552 11.2209C17.0552 10.5305 16.4933 9.97088 15.8002 9.97088C14.662 9.97088 13.661 10.5283 12.8821 11.1489C12.0858 11.7833 11.3779 12.5982 10.8011 13.3644C10.219 14.1378 9.73871 14.9045 9.40547 15.4739C9.23808 15.7599 9.10595 15.9993 9.01474 16.169C8.9691 16.254 8.9336 16.3217 8.90895 16.3692C8.89662 16.393 8.88699 16.4118 8.88016 16.4252C8.87674 16.4319 8.87402 16.4373 8.87201 16.4413L8.86953 16.4462L8.86837 16.4485C8.86823 16.4488 8.86811 16.449 9.99076 17.0076L8.86811 16.449C8.78112 16.6225 8.73584 16.8137 8.73584 17.0076V22.7943C8.73584 23.4847 9.29769 24.0443 9.99076 24.0443C10.6838 24.0443 11.2457 23.4847 11.2457 22.7943V17.3152Z" fill="#617086"/>
<path d="M28.87 22.7967C28.5836 22.7967 28.3036 22.7121 28.0653 22.5538L23.3492 19.5327C23.1159 19.3828 22.924 19.177 22.7911 18.9342C22.6582 18.6915 22.5885 18.4194 22.5884 18.1428V16.2913C22.5883 16.2121 22.6096 16.1343 22.65 16.0661C22.6905 15.9979 22.7486 15.9418 22.8183 15.9037C22.888 15.8656 22.9667 15.8469 23.0462 15.8495C23.1256 15.8521 23.2029 15.876 23.27 15.9186L29.6739 20.146C29.9335 20.3183 30.1304 20.5692 30.2356 20.8616C30.3409 21.1541 30.3488 21.4725 30.2583 21.7698C30.1678 22.0671 29.9836 22.3274 29.733 22.5124C29.4824 22.6973 29.1788 22.797 28.8669 22.7967H28.87Z" fill="#617086"/>
<path d="M13.4835 38.5512C13.2578 38.5515 13.0351 38.4993 12.8332 38.3988C12.6313 38.2983 12.4557 38.1523 12.3204 37.9723C11.8388 37.3333 12.0066 36.6301 12.6106 35.9473L17.3126 30.1145C17.3773 30.0662 17.4515 30.0319 17.5303 30.0138C17.6091 29.9957 17.6908 29.9942 17.7702 30.0093C17.8497 30.0245 17.9251 30.056 17.9916 30.1018C18.0581 30.1476 18.1143 30.2068 18.1565 30.2755C18.2789 30.4739 18.4216 30.7169 18.5636 30.9856C18.9746 31.763 19.0342 32.2442 18.4318 32.9934C17.8044 33.7747 14.3533 38.2622 14.3533 38.2622C14.1478 38.495 13.7863 38.5512 13.4835 38.5512Z" fill="#617086"/>
<path d="M20.1571 8.32887C21.7615 8.32887 23.0622 7.03329 23.0622 5.43512C23.0622 3.83695 21.7615 2.54137 20.1571 2.54137C18.5526 2.54137 17.252 3.83695 17.252 5.43512C17.252 7.03329 18.5526 8.32887 20.1571 8.32887Z" fill="#617086"/>
<path fill-rule="evenodd" clip-rule="evenodd" d="M20.1571 3.16637C18.8992 3.16637 17.8794 4.18212 17.8794 5.43512C17.8794 6.68812 18.8992 7.70387 20.1571 7.70387C21.415 7.70387 22.4348 6.68812 22.4348 5.43512C22.4348 4.18212 21.415 3.16637 20.1571 3.16637ZM16.6245 5.43512C16.6245 3.49177 18.2061 1.91637 20.1571 1.91637C22.1081 1.91637 23.6897 3.49177 23.6897 5.43512C23.6897 7.37847 22.1081 8.95387 20.1571 8.95387C18.2061 8.95387 16.6245 7.37847 16.6245 5.43512Z" fill="#617086"/>
</svg>
