<svg width="200" height="200" viewBox="0 0 200 200" fill="none" xmlns="http://www.w3.org/2000/svg">
<circle cx="100" cy="100" r="99.5" fill="#FAFAFA" stroke="#D1D0D8"/>
<g clip-path="url(#clip0_1707_3730)">
<path d="M163 164H36V37H163V164Z" fill="#FAFAFA"/>
<path d="M57.4295 81.8842C57.4783 81.8311 57.5317 81.7727 57.5895 81.7093C57.9232 81.3425 58.4011 80.8063 58.975 80.1309C60.1232 78.7796 61.6534 76.874 63.1827 74.6564C66.2605 70.1934 69.2592 64.5715 69.2592 59.6845C69.2592 53.1512 63.9629 47.8546 57.4295 47.8546C50.896 47.8546 45.5997 53.1512 45.5997 59.6845C45.5997 64.5715 48.5985 70.1934 51.6762 74.6564C53.2055 76.874 54.7358 78.7796 55.884 80.1309C56.4578 80.8063 56.9357 81.3425 57.2695 81.7093C57.3272 81.7727 57.3806 81.8311 57.4295 81.8842Z" fill="#FAFAFA" stroke="#E80000"/>
<path d="M57.4295 65.0974C60.4189 65.0974 62.8424 62.6739 62.8424 59.6844C62.8424 56.6949 60.4189 54.2714 57.4295 54.2714C54.44 54.2714 52.0165 56.6949 52.0165 59.6844C52.0165 62.6739 54.44 65.0974 57.4295 65.0974Z" fill="#FAFAFA" stroke="#E80000"/>
<path d="M65.8076 84.0522C65.8076 86.4017 62.0564 88.3062 57.4295 88.3062C52.8024 88.3062 49.0513 86.4017 49.0513 84.0522C49.0513 82.3475 51.0262 80.8772 53.8778 80.1989C55.5211 82.2171 56.7273 83.4773 56.8067 83.5604L57.4295 84.2081L58.0522 83.5604C58.1317 83.4773 59.3379 82.2171 60.9811 80.1989C63.8327 80.8772 65.8076 82.3475 65.8076 84.0522Z" fill="#13294B"/>
<path d="M98.301 122.371C98.686 123.528 99.2212 124.6 99.8908 125.557L101.68 124.306C101.131 123.521 100.691 122.638 100.372 121.682L98.301 122.371Z" fill="#13294B"/>
<path d="M99.6807 116.893C99.6807 116.127 99.7228 115.308 99.8054 114.46C99.8187 114.328 99.8325 114.197 99.8469 114.068L97.677 113.825C97.6614 113.964 97.6464 114.105 97.6325 114.247C97.5425 115.166 97.4974 116.056 97.4974 116.893C97.4974 117.007 97.498 117.119 97.4997 117.23L99.683 117.198C99.6813 117.098 99.6807 116.996 99.6807 116.893Z" fill="#13294B"/>
<path d="M86.4272 79.6708L86.9191 81.7981C88.0534 81.5354 89.0647 81.3611 90.0108 81.2635L89.7873 79.0918C88.7499 79.1986 87.6508 79.388 86.4272 79.6708Z" fill="#13294B"/>
<path d="M98.3258 80.1806C97.3058 79.8065 96.1801 79.5092 94.98 79.2962L94.5984 81.446C95.6733 81.6365 96.6743 81.9008 97.5742 82.2305L98.3258 80.1806Z" fill="#13294B"/>
<path d="M103.205 86.7966L105.106 85.7235C104.509 84.6648 103.761 83.7146 102.883 82.8995L101.397 84.4997C102.11 85.1612 102.718 85.9342 103.205 86.7966Z" fill="#13294B"/>
<path d="M81.5372 81.0298C80.5466 81.3283 79.5223 81.6365 78.5058 81.9165L79.0852 84.0212C80.1269 83.7349 81.164 83.4226 82.1669 83.1201L82.2549 83.0936L81.6253 81.0033L81.5372 81.0298Z" fill="#13294B"/>
<path d="M70.7347 83.161V85.3442C71.8389 85.3442 72.9565 85.2617 74.1513 85.092L73.8441 82.9301C72.752 83.0854 71.735 83.161 70.7347 83.161Z" fill="#13294B"/>
<path d="M104.825 94.0882L104.825 94.1552L107.009 94.1604V94.0882C107.009 92.9043 106.927 91.774 106.766 90.7297L104.608 91.061C104.752 91.9962 104.825 93.0151 104.825 94.0882Z" fill="#13294B"/>
<path d="M119.491 134.586C120.677 134.906 121.67 135.187 122.617 135.469L123.241 133.377C122.276 133.089 121.265 132.804 120.06 132.478L119.491 134.586Z" fill="#13294B"/>
<path d="M127.207 136.997C128.238 137.384 129.235 137.793 130.173 138.213L131.066 136.221C130.087 135.782 129.047 135.355 127.973 134.953L127.207 136.997Z" fill="#13294B"/>
<path d="M138.349 140.387C137.455 139.74 136.508 139.117 135.537 138.537L134.417 140.412C135.334 140.959 136.226 141.545 137.069 142.156L138.349 140.387Z" fill="#13294B"/>
<path d="M111.555 132.442C112.461 132.712 113.445 132.986 114.742 133.332L115.304 131.222C114.028 130.882 113.064 130.613 112.179 130.35L111.555 132.442Z" fill="#13294B"/>
<path d="M105.789 99.3489L103.808 98.4316C103.393 99.3292 102.88 100.226 102.302 101.222L104.19 102.318C104.796 101.275 105.335 100.331 105.789 99.3489Z" fill="#13294B"/>
<path d="M103.753 129.168C104.654 129.742 105.652 130.264 106.804 130.762L107.671 128.758C106.626 128.307 105.729 127.839 104.927 127.327L103.753 129.168Z" fill="#13294B"/>
<path d="M98.7086 108.824L100.794 109.47C101.1 108.485 101.466 107.529 101.915 106.547L99.9295 105.639C99.4411 106.707 99.0417 107.749 98.7086 108.824Z" fill="#13294B"/>
<path d="M146.651 137.885L144.412 144.894L142.289 143.333L140.996 145.093L142.99 146.558L136.892 150.232L153.9 153.646L146.651 137.885Z" fill="#E8B600"/>
</g>
<defs>
<clipPath id="clip0_1707_3730">
<rect width="127" height="127" fill="white" transform="translate(36 37)"/>
</clipPath>
</defs>
</svg>
