<svg width="200" height="200" viewBox="0 0 200 200" fill="none" xmlns="http://www.w3.org/2000/svg">
<circle cx="100" cy="100" r="99.5" fill="#FAFAFA" stroke="#D1D0D8"/>
<path fill-rule="evenodd" clip-rule="evenodd" d="M134.037 67.5476C134.86 68.2329 134.943 69.4233 134.223 70.2065L106.51 100.356C106.149 100.749 105.634 100.981 105.086 100.999C104.539 101.016 104.008 100.817 103.621 100.448L91.7437 89.1417C90.9707 88.4058 90.9707 87.2127 91.7437 86.4768C92.5168 85.7409 93.7701 85.7409 94.5432 86.4768L104.924 96.3587L131.244 67.7248C131.964 66.9416 133.214 66.8623 134.037 67.5476Z" fill="#13294B"/>
<path fill-rule="evenodd" clip-rule="evenodd" d="M79.8666 86.4775C80.6397 85.7416 81.8931 85.7416 82.6661 86.4775L94.5431 97.7836C95.3162 98.5195 95.3162 99.7126 94.5431 100.448C93.7701 101.184 92.5167 101.184 91.7437 100.448L79.8666 89.1423C79.0936 88.4065 79.0936 87.2133 79.8666 86.4775Z" fill="#E8B600"/>
<path fill-rule="evenodd" clip-rule="evenodd" d="M122.157 67.5453C122.981 68.2292 123.067 69.4195 122.349 70.204L105.523 88.5765C104.804 89.3609 103.554 89.4424 102.73 88.7586C101.906 88.0747 101.82 86.8843 102.539 86.0999L119.364 67.7274C120.083 66.943 121.333 66.8614 122.157 67.5453Z" fill="#E8B600"/>
<path d="M132.74 85.5V128.625C132.74 129.856 132.531 131.075 132.124 132.213C131.717 133.35 131.121 134.384 130.37 135.254C129.618 136.125 128.726 136.815 127.744 137.286C126.763 137.758 125.71 138 124.647 138H76.0925C73.9462 138 71.8879 137.012 70.3702 135.254C68.8526 133.496 68 131.111 68 128.625V72.375C68 69.8886 68.8526 67.504 70.3702 65.7459C71.8879 63.9877 73.9462 63 76.0925 63H109.976" stroke="#13294B" stroke-width="2" stroke-linecap="round" stroke-linejoin="round"/>
</svg>
