<svg width="200" height="200" viewBox="0 0 200 200" fill="none" xmlns="http://www.w3.org/2000/svg">
<circle cx="100" cy="100" r="99.5" fill="#FAFAFA" stroke="#D1D0D8"/>
<path d="M119.066 64.9523L66.3414 54.559C61.9735 53.698 57.7347 56.5409 56.8737 60.9088L48.559 103.089C47.698 107.457 50.5409 111.696 54.9088 112.557L107.634 122.95C112.002 123.811 116.241 120.968 117.102 116.6L125.416 74.4201C126.277 70.0522 123.434 65.8133 119.066 64.9523Z" stroke="#13294B" stroke-width="2" stroke-linejoin="round"/>
<path d="M92.3047 103.461L80.306 85.6068C79.5428 84.4691 78.374 83.6659 77.0383 83.3612C75.7026 83.0566 74.301 83.2736 73.12 83.9678L49.5982 97.8172" stroke="#13294B" stroke-linecap="round" stroke-linejoin="round"/>
<circle cx="100.766" cy="76.7664" r="6.02847" transform="rotate(-16.878 100.766 76.7664)" stroke="#E8B600" stroke-width="2"/>
<path d="M127.264 79.4895L75.8395 95.092C71.5793 96.3845 69.1736 100.886 70.4662 105.146L82.9482 146.286C84.2407 150.546 88.7421 152.952 93.0023 151.659L144.427 136.057C148.687 134.764 151.093 130.263 149.8 126.003L137.318 84.8628C136.026 80.6026 131.525 78.1969 127.264 79.4895Z" fill="#FAFAFA" stroke="#13294B" stroke-width="2" stroke-linejoin="round"/>
<path d="M121.738 126.057L102.756 115.936C101.548 115.29 100.139 115.131 98.8166 115.489C97.4944 115.848 96.3592 116.698 95.6429 117.866L81.3882 141.144" fill="#FAFAFA"/>
<path d="M121.738 126.057L102.756 115.936C101.548 115.29 100.139 115.131 98.8166 115.489C97.4944 115.848 96.3592 116.698 95.6429 117.866L81.3882 141.144" stroke="#13294B" stroke-linecap="round" stroke-linejoin="round"/>
<path d="M113.572 145.419L127.38 119.584C128.01 118.4 129.061 117.496 130.325 117.047C131.589 116.599 132.974 116.639 134.21 117.16L149.02 123.432" fill="#FAFAFA"/>
<path d="M113.572 145.419L127.38 119.584C128.01 118.4 129.061 117.496 130.325 117.047C131.589 116.599 132.974 116.639 134.21 117.16L149.02 123.432" stroke="#13294B" stroke-linecap="round" stroke-linejoin="round"/>
<circle cx="122.766" cy="100.766" r="6.02847" transform="rotate(-16.878 122.766 100.766)" stroke="#E8B600" stroke-width="2"/>
</svg>
