<svg width="200" height="200" viewBox="0 0 200 200" fill="none" xmlns="http://www.w3.org/2000/svg">
<circle cx="100" cy="100" r="99.5" fill="#FAFAFA" stroke="#D1D0D8"/>
<path d="M131 85.5V128.625C131 129.856 130.79 131.075 130.382 132.213C129.973 133.35 129.375 134.384 128.62 135.254C127.866 136.125 126.97 136.815 125.984 137.286C124.999 137.758 123.942 138 122.875 138H74.125C71.9701 138 69.9035 137.012 68.3798 135.254C66.856 133.496 66 131.111 66 128.625V72.375C66 69.8886 66.856 67.504 68.3798 65.7459C69.9035 63.9877 71.9701 63 74.125 63H108.144" stroke="#13294B" stroke-width="2" stroke-linecap="round" stroke-linejoin="round"/>
<path d="M133.77 64.4022L133.771 64.403C134.759 65.4842 134.677 67.1934 133.614 68.2544C133.614 68.2544 133.614 68.2545 133.614 68.2545L131.167 70.6897L131.167 70.6897L131.165 70.6914C131.06 70.7963 130.936 70.8796 130.8 70.9364C130.663 70.9932 130.516 71.0224 130.368 71.0224C130.22 71.0224 130.074 70.9932 129.937 70.9364C129.8 70.8796 129.676 70.7963 129.572 70.6914L129.571 70.6903L127.269 68.393C127.269 68.3929 127.269 68.3929 127.269 68.3928C127.059 68.1821 126.94 67.8964 126.94 67.5986C126.94 67.3008 127.059 67.0153 127.269 66.8046C127.269 66.8044 127.269 66.8043 127.269 66.8042L129.779 64.3064L129.78 64.306C130.044 64.0425 130.359 63.8353 130.705 63.6969C131.052 63.5585 131.422 63.4918 131.795 63.5008C132.168 63.5098 132.536 63.5943 132.875 63.7493C133.214 63.9042 133.519 64.1263 133.77 64.4022Z" fill="#E8B600" stroke="#E8B600"/>
<path d="M85.5493 108.455L85.5497 108.455L122.192 71.8778C122.44 71.6298 122.777 71.4905 123.128 71.4905C123.479 71.4905 123.816 71.6296 124.065 71.8772C124.065 71.8774 124.065 71.8776 124.065 71.8778L126.083 73.9052C126.083 73.9054 126.083 73.9055 126.083 73.9057C126.329 74.1541 126.466 74.4892 126.466 74.8384C126.466 75.1876 126.329 75.5226 126.083 75.771C126.083 75.7712 126.083 75.7714 126.083 75.7716L89.5071 112.416L89.5067 112.416C89.346 112.578 89.1465 112.695 88.9273 112.757L88.9156 112.76L88.904 112.764L83.8706 114.456C83.8218 114.469 83.7704 114.469 83.7214 114.457C83.6702 114.444 83.6234 114.417 83.586 114.38C83.5486 114.342 83.522 114.296 83.509 114.244C83.4966 114.195 83.497 114.144 83.5103 114.095L85.2016 109.058L85.2055 109.046L85.2088 109.034C85.2707 108.815 85.388 108.616 85.5493 108.455Z" fill="#13294B" stroke="#13294B"/>
</svg>
