<svg width="215" height="127" viewBox="0 0 215 127" fill="none" xmlns="http://www.w3.org/2000/svg">
<path d="M1 65.2772C1.24523 62.9824 3.64926 62.1945 4.02979 60.4141C4.46946 58.3569 5.30369 56.6842 6.37359 54.7728C9.36838 49.4227 9.16047 43.0213 11.7472 37.3628C13.5288 33.4654 14.2167 29.0685 15.9203 25.0105C17.3112 21.6973 18.4421 19.4555 20.3221 16.2569C20.7835 15.4718 19.9549 13.0878 21.1224 12.8041C22.7027 12.42 24.032 10.5226 24.8953 9.25398C26.253 7.25908 31.5103 3.8281 33.9847 3.12644C43.995 0.287826 58.073 -0.100573 67.3124 4.39085C78.0937 9.63182 85.1071 21.409 89.4928 30.9435C93.518 39.6945 93.5023 48.5264 96.124 57.4476C101.432 75.5087 90.9613 99.1393 106.528 114.589C117.406 125.385 139.813 127.08 155.348 125.483C174.141 123.55 183.587 105.594 191.362 93.1915C197.036 84.142 201.849 74.6612 207.826 65.7635C209.302 63.5661 213.199 62.0696 214 60.025" stroke="#B6BDC7" stroke-linecap="round" stroke-dasharray="10 10"/>
</svg>
