<svg width="222" height="90" viewBox="0 0 222 90" fill="none" xmlns="http://www.w3.org/2000/svg">
<path d="M1.33028 12.6305C5.71158 15.8032 8.07706 25.0804 11.0887 29.9153C15.7641 37.4214 23.1644 46.6885 30.3718 51.3439C37.3478 55.8497 45.1092 59.1423 53.92 59.6394C72.3224 60.6777 82.4199 54.9819 98.4655 40.7464C105.655 34.3679 114.216 23.548 110.135 14.6069C107.499 8.83186 99.2497 1.47419 92.9281 0.685221C80.5187 -0.863553 57.8436 20.322 55.6264 35.3228C53.1197 52.2825 70.4682 68.0583 78.8029 76.7839C87.6126 86.0067 91.676 88.1252 104.566 89.0781C125.582 90.6316 141.724 80.6625 161.675 68.5812C179.407 57.8428 203.909 35.9086 220.967 46.3575" stroke="#B6BDC7" stroke-linecap="round" stroke-dasharray="10 10"/>
</svg>
