<svg width="237" height="154" viewBox="0 0 237 154" fill="none" xmlns="http://www.w3.org/2000/svg">
<path d="M1.45776 75.6256C11.6149 75.6256 25.25 80.1033 34.0951 84.6454C44.65 90.0654 44.0193 98.5783 49.761 107.076C52.3925 110.971 53.7663 115.249 56.5852 119.063C61.1201 125.198 66.1655 130.481 71.717 135.678C84.5693 147.71 104.008 152.531 121.088 152.531C126.479 152.531 131.974 152.808 137.348 152.294C144.876 151.574 150.38 148.046 156.93 144.698C164.555 140.801 172.031 135.225 177.818 128.795C190.886 114.275 197.898 95.8887 204.403 77.8212C211.879 57.0539 214.244 32.1869 225.765 13.2586C229.109 7.76482 232.068 5.23536 236.447 0.856445" stroke="#B6BDC7" stroke-linecap="round" stroke-dasharray="10 10"/>
</svg>
