<svg width="24" height="24" viewBox="0 0 24 24" fill="none" xmlns="http://www.w3.org/2000/svg">
<g id="icons / compass-outline">
<path id="Vector" d="M21 12C21 7.03125 16.9688 3 12 3C7.03125 3 3 7.03125 3 12C3 16.9688 7.03125 21 12 21C16.9688 21 21 16.9688 21 12Z" stroke="#13294B" stroke-miterlimit="0"/>
<path id="Vector_2" d="M16.4377 7.075L10.944 9.2725C10.5666 9.42339 10.2239 9.64936 9.93659 9.9367C9.64925 10.224 9.42328 10.5668 9.27239 10.9441L7.07489 16.4378C7.04761 16.506 7.04093 16.5806 7.05568 16.6525C7.07043 16.7244 7.10597 16.7904 7.15787 16.8423C7.20977 16.8942 7.27577 16.9298 7.34768 16.9445C7.41959 16.9593 7.49424 16.9526 7.56239 16.9253L13.0561 14.7278C13.4334 14.5769 13.7762 14.351 14.0635 14.0636C14.3508 13.7763 14.5768 13.4336 14.7277 13.0563L16.9252 7.5625C16.9525 7.49436 16.9592 7.4197 16.9444 7.34779C16.9297 7.27589 16.8941 7.20989 16.8422 7.15798C16.7903 7.10608 16.7243 7.07055 16.6524 7.0558C16.5805 7.04105 16.5059 7.04773 16.4377 7.075ZM12 13.1252C11.7775 13.1252 11.56 13.0592 11.375 12.9356C11.19 12.8119 11.0458 12.6362 10.9607 12.4307C10.8755 12.2251 10.8533 11.9989 10.8967 11.7807C10.9401 11.5625 11.0472 11.362 11.2046 11.2047C11.3619 11.0473 11.5623 10.9402 11.7806 10.8968C11.9988 10.8534 12.225 10.8756 12.4306 10.9608C12.6361 11.0459 12.8118 11.1901 12.9354 11.3751C13.0591 11.5601 13.125 11.7777 13.125 12.0002C13.125 12.2985 13.0065 12.5847 12.7955 12.7957C12.5846 13.0066 12.2984 13.1252 12 13.1252Z" fill="#13294B"/>
</g>
</svg>
