<svg width="24" height="24" viewBox="0 0 24 24" fill="none" xmlns="http://www.w3.org/2000/svg">
<g id="icons / compass-outline">
<path id="Vector" d="M21 12C21 7.03125 16.9688 3 12 3C7.03125 3 3 7.03125 3 12C3 16.9688 7.03125 21 12 21C16.9688 21 21 16.9688 21 12Z" stroke="white" stroke-miterlimit="10"/>
<path id="Vector_2" d="M16.4376 7.075L10.9439 9.2725C10.5666 9.42339 10.2239 9.64936 9.93652 9.9367C9.64919 10.224 9.42322 10.5668 9.27233 10.9441L7.07483 16.4378C7.04755 16.506 7.04087 16.5806 7.05562 16.6525C7.07037 16.7244 7.1059 16.7904 7.15781 16.8423C7.20971 16.8942 7.27571 16.9298 7.34762 16.9445C7.41953 16.9593 7.49418 16.9526 7.56233 16.9253L13.0561 14.7278C13.4334 14.5769 13.7761 14.351 14.0634 14.0636C14.3508 13.7763 14.5768 13.4336 14.7276 13.0563L16.9251 7.5625C16.9524 7.49436 16.9591 7.4197 16.9443 7.34779C16.9296 7.27589 16.8941 7.20989 16.8422 7.15798C16.7903 7.10608 16.7243 7.07055 16.6524 7.0558C16.5804 7.04105 16.5058 7.04773 16.4376 7.075ZM12 13.1252C11.7775 13.1252 11.56 13.0592 11.375 12.9356C11.19 12.8119 11.0458 12.6362 10.9606 12.4307C10.8755 12.2251 10.8532 11.9989 10.8966 11.7807C10.94 11.5625 11.0472 11.362 11.2045 11.2047C11.3618 11.0473 11.5623 10.9402 11.7805 10.8968C11.9987 10.8534 12.2249 10.8756 12.4305 10.9608C12.6361 11.0459 12.8118 11.1901 12.9354 11.3751C13.059 11.5601 13.125 11.7777 13.125 12.0002C13.125 12.2985 13.0065 12.5847 12.7955 12.7957C12.5845 13.0066 12.2984 13.1252 12 13.1252Z" fill="white"/>
</g>
</svg>
