<svg width="32" height="32" viewBox="0 0 32 32" fill="none" xmlns="http://www.w3.org/2000/svg">
<path d="M15.9841 9.25C12.3307 9.25 8.58301 11.3645 5.6327 15.5936C5.54849 15.7156 5.50234 15.8599 5.50009 16.0082C5.49783 16.1564 5.53958 16.302 5.62004 16.4266C7.88692 19.975 11.5844 22.75 15.9841 22.75C20.336 22.75 24.1094 19.9666 26.3805 16.4102C26.4591 16.2881 26.5009 16.1459 26.5009 16.0007C26.5009 15.8555 26.4591 15.7134 26.3805 15.5912C24.1043 12.0756 20.3032 9.25 15.9841 9.25Z" stroke="#808080" stroke-linecap="round" stroke-linejoin="round"/>
<path d="M16 19.75C18.0711 19.75 19.75 18.0711 19.75 16C19.75 13.9289 18.0711 12.25 16 12.25C13.9289 12.25 12.25 13.9289 12.25 16C12.25 18.0711 13.9289 19.75 16 19.75Z" stroke="#808080" stroke-miterlimit="10"/>
</svg>
