<svg width="25" height="24" viewBox="0 0 25 24" fill="none" xmlns="http://www.w3.org/2000/svg">
<g id="icons / grid">
<path id="Vector" d="M10.0625 11.25H3.6875C3.23995 11.25 2.81072 11.0722 2.49426 10.7557C2.17779 10.4393 2 10.0101 2 9.5625V3.1875C2 2.73995 2.17779 2.31072 2.49426 1.99426C2.81072 1.67779 3.23995 1.5 3.6875 1.5H10.0625C10.5101 1.5 10.9393 1.67779 11.2557 1.99426C11.5722 2.31072 11.75 2.73995 11.75 3.1875V9.5625C11.75 10.0101 11.5722 10.4393 11.2557 10.7557C10.9393 11.0722 10.5101 11.25 10.0625 11.25Z" fill="#13294B"/>
<path id="Vector_2" d="M21.3125 11.25H14.9375C14.4899 11.25 14.0607 11.0722 13.7443 10.7557C13.4278 10.4393 13.25 10.0101 13.25 9.5625V3.1875C13.25 2.73995 13.4278 2.31072 13.7443 1.99426C14.0607 1.67779 14.4899 1.5 14.9375 1.5H21.3125C21.7601 1.5 22.1893 1.67779 22.5057 1.99426C22.8222 2.31072 23 2.73995 23 3.1875V9.5625C23 10.0101 22.8222 10.4393 22.5057 10.7557C22.1893 11.0722 21.7601 11.25 21.3125 11.25Z" fill="#13294B"/>
<path id="Vector_3" d="M10.0625 22.5H3.6875C3.23995 22.5 2.81072 22.3222 2.49426 22.0057C2.17779 21.6893 2 21.2601 2 20.8125V14.4375C2 13.9899 2.17779 13.5607 2.49426 13.2443C2.81072 12.9278 3.23995 12.75 3.6875 12.75H10.0625C10.5101 12.75 10.9393 12.9278 11.2557 13.2443C11.5722 13.5607 11.75 13.9899 11.75 14.4375V20.8125C11.75 21.2601 11.5722 21.6893 11.2557 22.0057C10.9393 22.3222 10.5101 22.5 10.0625 22.5Z" fill="#13294B"/>
<path id="Vector_4" d="M21.3125 22.5H14.9375C14.4899 22.5 14.0607 22.3222 13.7443 22.0057C13.4278 21.6893 13.25 21.2601 13.25 20.8125V14.4375C13.25 13.9899 13.4278 13.5607 13.7443 13.2443C14.0607 12.9278 14.4899 12.75 14.9375 12.75H21.3125C21.7601 12.75 22.1893 12.9278 22.5057 13.2443C22.8222 13.5607 23 13.9899 23 14.4375V20.8125C23 21.2601 22.8222 21.6893 22.5057 22.0057C22.1893 22.3222 21.7601 22.5 21.3125 22.5Z" fill="#13294B"/>
</g>
</svg>
