<svg width="25" height="24" viewBox="0 0 25 24" fill="none" xmlns="http://www.w3.org/2000/svg">
<g id="icons / grid-outline">
<path id="Vector" d="M10.0625 2.25H3.6875C3.16973 2.25 2.75 2.66973 2.75 3.1875V9.5625C2.75 10.0803 3.16973 10.5 3.6875 10.5H10.0625C10.5803 10.5 11 10.0803 11 9.5625V3.1875C11 2.66973 10.5803 2.25 10.0625 2.25Z" stroke="white" stroke-linecap="round" stroke-linejoin="round"/>
<path id="Vector_2" d="M21.3125 2.25H14.9375C14.4197 2.25 14 2.66973 14 3.1875V9.5625C14 10.0803 14.4197 10.5 14.9375 10.5H21.3125C21.8303 10.5 22.25 10.0803 22.25 9.5625V3.1875C22.25 2.66973 21.8303 2.25 21.3125 2.25Z" stroke="white" stroke-linecap="round" stroke-linejoin="round"/>
<path id="Vector_3" d="M10.0625 13.5H3.6875C3.16973 13.5 2.75 13.9197 2.75 14.4375V20.8125C2.75 21.3303 3.16973 21.75 3.6875 21.75H10.0625C10.5803 21.75 11 21.3303 11 20.8125V14.4375C11 13.9197 10.5803 13.5 10.0625 13.5Z" stroke="white" stroke-linecap="round" stroke-linejoin="round"/>
<path id="Vector_4" d="M21.3125 13.5H14.9375C14.4197 13.5 14 13.9197 14 14.4375V20.8125C14 21.3303 14.4197 21.75 14.9375 21.75H21.3125C21.8303 21.75 22.25 21.3303 22.25 20.8125V14.4375C22.25 13.9197 21.8303 13.5 21.3125 13.5Z" stroke="white" stroke-linecap="round" stroke-linejoin="round"/>
</g>
</svg>
