<svg width="24" height="24" viewBox="0 0 24 24" fill="none" xmlns="http://www.w3.org/2000/svg">
<g id="icons / pencil">
<path id="Vector (Stroke)" fill-rule="evenodd" clip-rule="evenodd" d="M16.8097 5.02942C17.0834 5.02925 17.346 5.13791 17.5395 5.33147L18.6692 6.46115C18.8628 6.6547 18.9714 6.91727 18.9713 7.19099C18.9711 7.46471 18.8621 7.72714 18.6683 7.92046L5.88084 20.6765C5.78502 20.7721 5.67133 20.8479 5.54625 20.8996L3.675 21.6726C3.28983 21.8317 2.84675 21.7433 2.55208 21.4486C2.2574 21.1539 2.16904 20.7109 2.32815 20.3257L3.10112 18.4545C3.15278 18.3294 3.22857 18.2157 3.32415 18.1199L16.0802 5.33236C16.2736 5.13857 16.536 5.02959 16.8097 5.02942Z" fill="#081120"/>
<path id="Vector (Stroke)_2" fill-rule="evenodd" clip-rule="evenodd" d="M19.2186 2.38743C19.4377 2.2967 19.6724 2.25 19.9095 2.25C20.1466 2.25 20.3813 2.2967 20.6003 2.38743C20.8193 2.47815 21.0183 2.61112 21.186 2.77875C21.186 2.77876 21.186 2.77878 21.186 2.77879L21.2214 2.81418C21.5596 3.15267 21.7496 3.61162 21.7496 4.09014C21.7496 4.56867 21.5596 5.02761 21.2214 5.36611L20.6685 5.91903C20.2657 6.32176 19.6128 6.32176 19.2101 5.91903L18.0804 4.78934C17.8869 4.59589 17.7783 4.3335 17.7783 4.05992C17.7784 3.78634 17.8871 3.524 18.0807 3.33063L18.633 2.77879C18.6331 2.77872 18.6331 2.77864 18.6332 2.77857C18.6332 2.77853 18.6333 2.77848 18.6333 2.77844C18.8009 2.61096 18.9998 2.4781 19.2186 2.38743ZM20.4919 4.63717L20.6685 4.46062L20.1214 3.91359L20.4919 3.54311L20.1213 3.91346L20.0863 3.87844L19.5388 3.33094" fill="#081120"/>
</g>
</svg>
