<svg width="25" height="24" viewBox="0 0 25 24" fill="none" xmlns="http://www.w3.org/2000/svg">
<g id="icons / location-sharp">
<path id="Vector" d="M12.5 1.5C8.35953 1.5 5 4.52391 5 8.25C5 14.25 12.5 22.5 12.5 22.5C12.5 22.5 20 14.25 20 8.25C20 4.52391 16.6405 1.5 12.5 1.5ZM12.5 12C11.9067 12 11.3266 11.8241 10.8333 11.4944C10.3399 11.1648 9.95542 10.6962 9.72836 10.1481C9.5013 9.59987 9.44189 8.99667 9.55764 8.41473C9.6734 7.83279 9.95912 7.29824 10.3787 6.87868C10.7982 6.45912 11.3328 6.1734 11.9147 6.05764C12.4967 5.94189 13.0999 6.0013 13.6481 6.22836C14.1962 6.45542 14.6648 6.83994 14.9944 7.33329C15.3241 7.82664 15.5 8.40666 15.5 9C15.4991 9.79538 15.1828 10.5579 14.6204 11.1204C14.0579 11.6828 13.2954 11.9991 12.5 12Z" fill="white"/>
</g>
</svg>
