<svg width="25" height="24" viewBox="0 0 25 24" fill="none" xmlns="http://www.w3.org/2000/svg">
<g id="icons / location-outline">
<path id="Vector" d="M12.5 2.25C8.77344 2.25 5.75 5.12766 5.75 8.67188C5.75 12.75 10.25 19.2127 11.9023 21.4448C11.9709 21.5391 12.0608 21.6157 12.1647 21.6686C12.2686 21.7215 12.3835 21.749 12.5 21.749C12.6165 21.749 12.7314 21.7215 12.8353 21.6686C12.9392 21.6157 13.0291 21.5391 13.0977 21.4448C14.75 19.2136 19.25 12.7533 19.25 8.67188C19.25 5.12766 16.2266 2.25 12.5 2.25Z" stroke="white" stroke-linecap="round" stroke-linejoin="round"/>
<path id="Vector_2" d="M12.5 11.25C13.7426 11.25 14.75 10.2426 14.75 9C14.75 7.75736 13.7426 6.75 12.5 6.75C11.2574 6.75 10.25 7.75736 10.25 9C10.25 10.2426 11.2574 11.25 12.5 11.25Z" stroke="white" stroke-linecap="round" stroke-linejoin="round"/>
</g>
</svg>
